<svg version="1.1" id="Layer_1" xmlns="http://www.w3.org/2000/svg" xmlns:xlink="http://www.w3.org/1999/xlink" x="0px" y="0px"
	 width="100%" viewBox="0 0 1024 1024" enable-background="new 0 0 1024 1024" xml:space="preserve">
<path fill="#FF9437" opacity="1.000000" stroke="none" 
	d="
M95.024689,626.843079 
	C74.468933,613.848816 58.356087,596.731201 47.010357,575.173157 
	C46.188389,573.611267 45.135296,572.171021 44.485630,570.223145 
	C44.972752,568.771729 45.630878,567.557922 45.285759,566.802612 
	C39.021488,553.092285 34.993252,538.683167 33.616005,523.768616 
	C32.540451,512.121216 32.997158,500.329132 32.854687,488.600342 
	C32.795593,483.735779 32.949326,478.868622 33.002010,473.657288 
	C33.051826,472.855011 33.105907,472.398102 33.474091,471.841919 
	C33.882004,470.181305 33.975807,468.619965 34.067909,466.773560 
	C34.305328,465.986603 34.544453,465.484772 35.125847,464.813782 
	C36.631397,460.073486 37.794682,455.502319 38.934517,450.947906 
	C38.911060,450.964630 38.875397,450.918243 39.194725,450.766357 
	C40.994396,447.587341 44.300312,444.874268 41.158726,441.052216 
	C48.191795,424.971863 57.863708,410.745209 70.190651,398.183929 
	C78.808022,389.402802 88.768646,382.619720 99.208282,376.366119 
	C101.000511,375.292511 102.696983,374.059052 105.030388,372.953705 
	C107.950439,372.575104 110.447960,372.544922 112.577934,371.644928 
	C128.015427,365.121826 143.914978,360.748566 160.812943,361.019836 
	C171.258484,361.187500 181.699356,361.644836 192.378433,361.991547 
	C192.614532,362.010925 193.080872,362.094574 193.348602,362.327087 
	C199.711441,363.750336 205.806549,364.941040 212.265686,366.108002 
	C213.113205,366.041107 213.596710,365.997955 214.080215,365.954803 
	C214.080215,365.954803 214.016785,365.987030 214.206543,366.235840 
	C215.293121,366.643707 216.189941,366.802765 217.086761,366.961823 
	C217.086761,366.961823 217.012039,366.986664 217.149567,367.195801 
	C217.804184,367.640930 218.321289,367.876892 218.838379,368.112885 
	C225.653259,371.284271 232.818756,373.882812 239.188629,377.781281 
	C246.149414,382.041504 252.386414,387.488159 258.916870,392.446686 
	C269.476837,400.464783 277.723541,410.653992 284.303528,421.935760 
	C290.203094,432.050934 294.745789,442.957458 299.816101,453.997742 
	C299.821350,454.678680 299.933136,454.865509 300.080536,455.041138 
	C300.080536,455.041138 299.984528,454.979919 299.991455,455.287292 
	C300.361938,456.401489 300.725494,457.208313 301.089050,458.015106 
	C301.089050,458.015106 301.013031,457.992126 300.990906,458.347382 
	C301.672272,460.804993 302.375763,462.907349 303.079224,465.009705 
	C303.079224,465.009705 303.013947,464.990082 302.966980,465.386322 
	C303.971558,470.865295 305.023071,475.947998 306.074585,481.030731 
	C306.074585,481.030731 305.997192,480.989777 305.969177,481.384094 
	C306.322571,484.196991 306.704010,486.615540 307.085419,489.034119 
	C307.085419,489.034119 306.995056,488.996552 306.994385,489.425720 
	C306.690399,498.752350 306.670868,507.671387 305.996765,516.540649 
	C305.424561,524.069092 304.096741,531.540161 303.103271,539.036621 
	C300.226074,547.406372 298.268799,556.251892 294.245941,564.029053 
	C288.850311,574.460083 281.851135,584.060974 275.561615,594.031616 
	C275.058868,594.828552 274.720856,595.729370 274.175262,596.851318 
	C283.083008,605.380615 291.999481,613.995544 301.007172,622.514038 
	C306.375336,627.590759 306.480713,630.036438 301.066528,635.485352 
	C292.859833,643.744690 284.613922,651.965088 276.383606,660.200989 
	C267.768860,668.821472 263.904053,668.415771 256.443878,659.089478 
	C251.090103,652.396545 245.009842,646.289429 239.417038,639.780518 
	C237.325729,637.346680 235.697144,634.515198 233.804184,631.788086 
	C229.151810,633.998535 224.952209,635.993835 220.110321,637.976807 
	C219.280548,637.930359 219.093079,637.896301 218.737976,637.696838 
	C218.049988,637.714539 217.529633,637.897705 217.036835,638.058228 
	C217.064407,638.035645 217.107834,638.092163 216.702408,638.072876 
	C214.852341,638.372253 213.362610,638.557983 211.969818,639.029785 
	C191.752884,645.878723 171.041260,646.765137 150.039886,644.245667 
	C131.580490,642.031189 114.583214,635.547180 98.374359,626.685181 
	C97.536896,626.227295 96.153778,626.767517 95.024689,626.843079 
M141.819626,425.261566 
	C141.576508,425.390411 141.386108,425.573914 140.490128,425.980896 
	C114.482468,436.719727 102.812073,457.977875 97.144363,484.396881 
	C93.454468,497.940369 94.834427,511.383057 98.645302,525.185791 
	C109.417213,574.277832 153.723724,599.003845 190.175568,585.561340 
	C188.263626,583.925232 186.492020,582.510193 184.833908,580.972656 
	C178.172150,574.795532 171.396835,568.729431 164.970627,562.314697 
	C161.908310,559.257751 162.252548,553.981445 165.265488,551.195740 
	C172.269974,544.719360 179.275208,538.234314 186.502213,532.010681 
	C194.729248,524.925781 196.107544,525.158997 204.715225,532.914246 
	C207.664734,535.571655 210.856247,537.960388 213.936615,540.472534 
	C218.070770,543.844116 222.204361,547.216492 226.773300,550.943420 
	C228.785278,546.666687 231.339737,542.340820 232.891617,537.681152 
	C235.265152,530.554321 236.947037,523.197205 239.452621,515.313660 
	C239.681366,510.559296 240.161087,505.799896 240.065109,501.052094 
	C239.977081,496.697601 239.268051,492.355652 238.141617,487.583405 
	C236.737106,481.299469 236.085999,474.722443 233.778076,468.789978 
	C228.235092,454.541931 220.322113,441.722595 206.867004,433.484039 
	C200.904831,429.833374 194.418335,427.039001 187.617752,423.424500 
	C186.713333,423.295105 185.808929,423.165741 184.991425,423.003784 
	C184.991425,423.003784 185.023438,423.090912 184.558868,422.497284 
	C181.878265,421.816193 179.222992,420.688171 176.512512,420.534607 
	C166.897858,419.989868 157.152084,418.557678 148.014603,422.998718 
	C148.014603,422.998718 148.096664,423.040436 147.393005,422.977966 
	C146.588730,423.349823 145.784454,423.721649 145.009262,424.007202 
	C145.009262,424.007202 145.095261,424.037170 144.396149,424.003601 
	C143.591156,424.381012 142.786163,424.758453 141.957809,424.994720 
	C141.957809,424.994720 142.098419,424.968262 141.819626,425.261566 
z"/>
<path fill="#FE9437" opacity="1.000000" stroke="none" 
	d="
M786.366943,510.064301 
	C795.059509,499.383667 803.693359,488.654510 812.461426,478.036224 
	C820.971191,467.730804 829.654785,457.569092 838.188965,447.283539 
	C841.916870,442.790466 845.413208,438.105499 849.121216,433.595245 
	C850.240112,432.234283 851.717102,431.167694 853.479492,430.018585 
	C853.929016,430.070892 854.028442,430.261261 853.913513,430.481812 
	C853.533203,431.135437 853.267822,431.568512 852.914307,432.045807 
	C852.826111,432.089996 852.816650,432.321991 852.816650,432.321991 
	C852.816650,432.321991 852.997559,431.997559 853.459229,432.003601 
	C858.523438,431.746887 863.128357,431.230408 867.728271,431.271790 
	C878.786438,431.371246 889.841675,431.800293 900.899841,431.899841 
	C902.249084,431.911987 903.609131,430.721100 905.346619,430.047241 
	C906.496948,430.031158 907.264709,430.055603 908.138916,430.414062 
	C911.799744,430.874115 915.354126,431.000122 919.287842,431.114014 
	C919.919556,431.085419 920.171997,431.069000 920.424438,431.052551 
	C923.645386,436.033661 919.746765,439.109894 917.167542,442.287811 
	C906.278259,455.704285 895.126160,468.908020 884.275818,482.355438 
	C873.547546,495.651520 863.066467,509.147034 852.270508,522.816406 
	C877.423401,559.746521 902.718262,596.885071 928.110474,634.641602 
	C928.496216,635.506897 928.784607,635.754272 929.072998,636.001648 
	C929.072998,636.001648 929.008240,635.988953 928.972534,636.336914 
	C928.733093,638.143188 928.529419,639.601501 927.881714,641.098755 
	C924.972290,641.418091 922.507874,641.931335 920.041199,641.942017 
	C898.898193,642.033630 877.754761,642.034302 856.328613,642.039185 
	C855.670959,642.025452 855.296204,642.034790 854.921448,642.044067 
	C854.921448,642.044067 854.982483,642.013489 854.875732,641.801880 
	C854.469299,641.394897 854.169678,641.199524 853.870056,641.004150 
	C853.870056,641.004150 853.988892,640.954895 853.865845,640.900269 
	C853.608276,640.629578 853.426086,640.466980 853.196228,640.357788 
	C836.254822,616.253174 819.313416,592.148621 802.121338,567.687317 
	C796.962036,573.791260 791.958130,579.711426 786.306396,585.803955 
	C785.415894,585.980469 785.173096,585.984619 784.571228,586.144653 
	C783.808960,588.157104 783.068237,590.011536 783.055908,591.870789 
	C782.958801,606.496094 783.018799,621.122498 782.991943,635.748413 
	C782.980225,642.105408 782.120667,642.962158 775.793945,642.975891 
	C758.176392,643.014282 740.558838,643.020752 722.968445,643.023865 
	C722.995605,643.007874 722.989136,643.070496 722.857544,642.855957 
	C722.465027,642.434021 722.204102,642.226624 721.971802,642.025024 
	C722.000366,642.030823 721.946533,642.053406 721.960266,641.581665 
	C721.964172,547.378296 721.954346,453.646698 721.909363,359.922668 
	C721.874268,359.930206 721.834595,359.870331 722.312378,359.906555 
	C740.564453,359.963043 758.339050,360.039856 776.112183,359.911285 
	C777.790771,359.899109 779.460083,358.596008 781.133667,357.892242 
	C782.092163,358.610657 783.050720,359.329071 783.973999,360.723694 
	C783.924255,361.628418 783.909851,361.856934 783.656250,362.412598 
	C783.274963,363.550629 783.008667,364.361481 783.008362,365.172424 
	C782.989136,412.368042 782.976746,459.563660 783.067810,506.759094 
	C783.070496,508.144440 784.185852,509.527618 784.978271,511.028503 
	C785.571716,510.784912 785.969299,510.424622 786.366943,510.064301 
z"/>
<path fill="#FF9537" opacity="1.000000" stroke="none" 
	d="
M409.828796,566.889709 
	C412.799133,573.147766 415.100220,580.028931 421.483917,583.726990 
	C425.866089,586.265686 430.812592,587.810913 435.418304,589.987671 
	C441.689728,592.951538 448.589081,592.056030 454.433228,590.573853 
	C461.673279,588.737610 468.255035,584.067383 474.888611,580.220276 
	C476.938477,579.031433 478.228668,576.532593 480.296143,574.233154 
	C481.142426,573.229004 481.559265,572.625366 481.987518,572.009155 
	C481.998932,571.996521 482.019897,571.969788 482.232849,571.779541 
	C482.632172,571.056885 482.818573,570.524414 483.002502,569.995972 
	C483.000000,570.000000 482.994812,570.007263 483.212036,569.811768 
	C483.621460,569.074219 483.813629,568.532227 484.003296,567.994385 
	C484.000793,567.998535 483.994049,568.005920 484.241272,567.740417 
	C488.394165,558.877136 488.100922,550.026062 486.050751,540.720276 
	C486.042297,539.901611 486.064758,539.433411 486.414337,538.867920 
	C487.035461,534.886353 487.369293,531.004028 487.552948,527.114624 
	C487.568848,526.777771 486.592804,526.394226 486.036011,525.650635 
	C486.020050,524.502380 486.045624,523.735962 486.432800,522.834961 
	C488.320282,518.048401 489.611053,513.408875 486.030823,508.685547 
	C486.020325,507.886078 486.043243,507.428802 486.429688,506.835510 
	C487.107574,506.328186 487.695404,505.958252 487.697235,505.585480 
	C487.795959,485.435852 487.863647,465.285919 487.823700,445.136261 
	C487.822327,444.436157 486.696625,443.738281 486.060638,442.688080 
	C486.046143,441.867004 486.065979,441.397217 486.308411,440.658203 
	C486.389435,438.622833 486.247864,436.856689 486.086029,434.693115 
	C486.021240,433.511261 485.976746,432.726868 485.932251,431.942444 
	C485.932251,431.942444 485.996399,431.976135 486.236969,431.845795 
	C486.665649,431.353699 486.853790,430.991943 487.041931,430.630188 
	C487.881836,430.080444 488.721802,429.530701 489.982605,429.414459 
	C491.752472,430.232483 493.100006,430.945343 494.450836,430.951630 
	C511.327240,431.030457 528.204163,431.009827 545.080933,430.999969 
	C545.881958,430.999481 546.682861,430.860870 547.483826,430.786560 
	C547.401489,430.532990 547.354187,430.258942 547.222595,430.034271 
	C547.153870,429.916931 546.936829,429.886475 547.020752,429.650208 
	C547.610962,429.342804 547.967163,429.201965 548.323364,429.061157 
	C549.117737,429.406006 549.912109,429.750854 550.877075,430.706635 
	C551.306213,432.229004 551.564697,433.140472 551.606812,434.398132 
	C551.257080,442.391510 551.012390,450.038635 551.008057,457.685883 
	C550.974915,516.497925 550.991455,575.309937 550.983643,634.121948 
	C550.982544,641.964783 549.942688,642.975403 542.001648,642.984680 
	C534.004578,642.994080 526.006897,642.926270 518.010498,643.000183 
	C508.029816,643.092529 498.050140,643.295166 488.070007,643.450195 
	C487.388062,640.186279 486.488678,636.948547 486.091461,633.650330 
	C485.761963,630.914124 486.024048,628.106689 486.024048,623.827759 
	C464.387238,645.466370 438.269470,650.860718 410.471588,648.780029 
	C381.269501,646.594238 361.265411,630.011597 348.382202,604.110291 
	C348.721924,602.243469 348.976196,600.760559 348.694153,599.387939 
	C346.864319,590.482544 343.381317,581.620667 343.268433,572.708679 
	C342.699493,527.792664 342.990448,482.865692 343.004547,437.942566 
	C343.006409,431.960602 343.964081,431.028992 350.021484,431.018280 
	C366.326874,430.989410 382.633362,430.915314 398.936798,431.097137 
	C401.792603,431.128967 404.635559,432.315918 407.614990,433.299927 
	C407.784973,434.100616 407.824341,434.570770 407.639343,435.383575 
	C407.293732,436.207794 407.066589,436.689331 407.066223,437.171021 
	C407.035248,478.789825 406.997986,520.408691 407.098572,562.027161 
	C407.102386,563.611145 408.449951,565.191895 409.333862,566.813416 
	C409.496399,566.852722 409.828796,566.889709 409.828796,566.889709 
M409.661133,569.889099 
	C409.661133,569.889099 409.341064,569.986450 409.341064,569.986450 
	C409.341064,569.986450 409.660034,570.090027 409.661133,569.889099 
z"/>
<path fill="#FA8D32" opacity="1.000000" stroke="none" 
	d="
M585.951904,394.876099 
	C588.226257,386.648743 593.916809,380.849457 600.592651,376.349152 
	C605.103882,373.308044 610.678528,371.844391 616.425049,369.355835 
	C622.058228,368.666809 627.043823,368.297119 632.029358,367.927429 
	C632.029358,367.927399 631.992310,368.005371 632.277466,367.988342 
	C633.005554,367.542877 633.448425,367.114502 633.891357,366.686127 
	C633.891357,366.686127 633.879883,366.892639 634.079468,366.765503 
	C634.509094,366.067505 634.739075,365.496613 634.969055,364.925720 
	C634.969055,364.925720 634.985962,364.989624 635.285645,364.967316 
	C636.046692,364.271576 636.508057,363.598114 636.969360,362.924652 
	C636.969360,362.924652 636.991211,362.986755 637.308411,362.969910 
	C638.767639,361.841522 639.909729,360.729919 641.051758,359.618317 
	C648.097717,354.356964 654.984680,349.003510 664.706543,349.920837 
	C671.166992,350.530457 674.855347,354.582245 672.583130,360.577209 
	C670.897583,365.024323 667.913269,368.988129 665.421997,373.115631 
	C664.626770,374.433167 663.557556,375.585388 662.328308,377.184418 
	C669.450745,379.981232 676.182007,381.944763 682.240051,385.172028 
	C690.159058,389.390625 694.973938,396.618591 697.614197,405.139832 
	C701.353882,417.209351 695.716675,432.498138 686.268433,437.212555 
	C683.696533,438.495880 680.895508,439.319946 677.680054,440.565002 
	C676.043884,439.873383 675.054382,438.470184 673.790405,438.149750 
	C664.459778,435.784302 655.151306,433.203583 645.688416,431.518524 
	C631.499451,428.991760 617.191833,427.129028 602.930664,425.011078 
	C598.825256,424.401337 597.502441,426.511871 598.039612,430.258606 
	C599.523682,440.608826 600.704651,451.032227 605.854919,460.453217 
	C606.161316,461.013641 605.421265,462.146179 605.168152,463.012482 
	C598.590454,452.667450 595.982727,441.227295 596.069458,429.120209 
	C596.088196,426.507660 595.407410,425.158600 592.965454,423.869812 
	C590.337097,422.482697 588.282593,420.008270 585.992310,417.214966 
	C585.988586,409.239868 585.970215,402.057983 585.951904,394.876099 
z"/>
<path fill="#FF9437" opacity="1.000000" stroke="none" 
	d="
M605.200684,463.357117 
	C605.421265,462.146179 606.161316,461.013641 605.854919,460.453217 
	C600.704651,451.032227 599.523682,440.608826 598.039612,430.258606 
	C597.502441,426.511871 598.825256,424.401337 602.930664,425.011078 
	C617.191833,427.129028 631.499451,428.991760 645.688416,431.518524 
	C655.151306,433.203583 664.459778,435.784302 673.790405,438.149750 
	C675.054382,438.470184 676.043884,439.873383 677.489014,440.898376 
	C677.563232,441.497925 677.308960,441.974396 676.691284,442.785461 
	C676.494385,443.751801 676.660889,444.383545 676.827393,445.015289 
	C671.481750,461.142883 662.479126,474.383545 645.304260,478.987061 
	C630.510681,482.952301 613.521057,478.376709 605.200684,463.357117 
M607.921997,464.815857 
	C607.921997,464.815857 607.691833,464.804932 607.691833,464.804932 
	C607.691833,464.804932 607.985596,465.010468 608.078552,465.181061 
	C608.078552,465.181061 608.316101,465.186798 608.316101,465.186798 
	C608.316101,465.186798 608.011902,464.983368 607.921997,464.815857 
z"/>
<path fill="#FE9437" opacity="1.000000" stroke="none" 
	d="
M667.874084,637.947388 
	C667.962891,644.421875 667.286438,644.957275 659.811646,645.082275 
	C643.241516,645.359192 626.673279,645.753418 610.102783,645.998901 
	C602.468628,646.112000 598.930420,642.511780 598.934326,635.063538 
	C598.956970,592.082275 598.943054,549.100952 599.033936,506.119904 
	C599.040771,502.881500 599.766663,499.644592 600.766235,496.268738 
	C601.910217,496.274261 602.446350,496.418091 602.988770,497.064514 
	C603.330017,505.529083 603.902527,513.490356 603.927551,521.453308 
	C603.949097,528.298035 602.997437,535.150391 603.107849,541.989136 
	C603.241577,550.273682 604.393066,558.547607 604.389160,566.825806 
	C604.387390,570.528503 603.340881,573.941956 608.467285,574.882629 
	C606.483704,576.999756 601.807190,574.445129 602.668274,579.761292 
	C603.581848,585.401978 603.939087,591.193420 603.902710,596.914917 
	C603.823914,609.283264 603.332764,621.648987 603.021484,634.015991 
	C602.883118,639.511780 605.363525,641.593384 610.841797,640.821411 
	C613.789551,640.406067 616.776978,640.274475 619.744873,639.998352 
	C633.500854,638.718750 647.115295,643.198975 660.895630,641.004944 
	C662.875977,640.689697 665.461365,641.595520 665.464539,638.032227 
	C665.471497,630.210510 665.843506,622.384888 665.692078,614.568115 
	C665.419861,600.518982 664.870483,586.475281 664.447754,572.428955 
	C664.432922,571.936523 664.556274,571.441528 664.579041,570.946106 
	C664.857239,564.900757 665.268188,558.857605 665.372375,552.809204 
	C665.583008,540.584717 665.640808,528.357422 665.731445,516.131042 
	C665.771606,510.716675 665.738220,505.301758 665.738220,501.070038 
	C663.516541,499.429077 662.172180,498.325562 660.714661,497.400177 
	C659.813965,496.828308 658.743408,496.165161 657.745178,496.158813 
	C639.681885,496.043884 621.617920,496.022858 603.884888,495.671143 
	C606.188782,495.162109 608.161804,494.792694 610.134949,494.792023 
	C628.432739,494.785980 646.730469,494.843506 665.028259,494.882568 
	C666.023560,496.351654 667.018860,497.820770 667.726318,499.994446 
	C667.576904,503.791351 667.715271,506.883728 667.853638,509.976074 
	C667.899536,513.357788 667.945374,516.739502 667.725159,520.846558 
	C667.590576,523.040283 667.722046,524.508545 667.853516,525.976868 
	C667.893677,526.153076 667.933716,526.329224 667.716797,527.038574 
	C667.591003,529.039978 667.722351,530.508362 667.853638,531.976685 
	C667.900635,535.690125 667.947632,539.403564 667.707336,543.922424 
	C667.281189,545.709106 667.021790,546.690308 667.021057,547.671692 
	C666.998413,576.327759 666.988892,604.983887 667.037720,633.639893 
	C667.040161,635.076172 667.582886,636.511597 667.874084,637.947388 
z"/>
<path fill="#FE8821" opacity="1.000000" stroke="none" 
	d="
M407.484436,432.969391 
	C404.635559,432.315918 401.792603,431.128967 398.936798,431.097137 
	C382.633362,430.915314 366.326874,430.989410 350.021484,431.018280 
	C343.964081,431.028992 343.006409,431.960602 343.004547,437.942566 
	C342.990448,482.865692 342.699493,527.792664 343.268433,572.708679 
	C343.381317,581.620667 346.864319,590.482544 348.694153,599.387939 
	C348.976196,600.760559 348.721924,602.243469 348.398682,603.741577 
	C346.052948,597.212158 344.024231,590.616394 342.045013,583.152466 
	C341.740662,569.171509 341.411072,556.057922 341.001892,542.946838 
	C340.951508,541.332458 340.476440,539.731445 340.198181,538.124207 
	C340.140594,524.009583 340.083008,509.894928 340.325256,494.993591 
	C340.777710,492.565582 341.061005,490.924408 341.062897,489.282898 
	C341.084503,470.425507 341.063293,451.568054 341.053528,432.710632 
	C342.478485,431.529175 343.903442,430.347717 346.093536,429.128998 
	C366.723267,429.414246 386.587860,429.736755 406.452454,430.059235 
	C406.884216,430.419312 407.316010,430.779358 407.659515,431.675720 
	C407.542297,432.464508 407.513367,432.716949 407.484436,432.969391 
z"/>
<path fill="#FFBD80" opacity="1.000000" stroke="none" 
	d="
M782.514893,643.885620 
	C777.394531,644.493591 772.288208,645.391602 767.150452,645.640259 
	C759.762817,645.997864 752.350281,646.030396 744.952209,645.924988 
	C738.396851,645.831665 731.848938,645.300476 725.293823,645.075439 
	C719.999084,644.893738 718.940247,641.740845 718.943787,637.147339 
	C719.008484,553.859070 718.991211,470.570709 719.001770,387.282379 
	C719.002930,378.290375 719.068237,369.298340 719.705688,360.286560 
	C720.454651,360.401459 720.601562,360.536163 720.564270,361.053894 
	C720.263550,376.585388 720.052429,391.733826 720.046265,406.882294 
	C720.015076,483.009552 720.020996,559.136841 720.120972,635.263977 
	C720.123901,637.527954 721.311279,639.790344 721.946533,642.053406 
	C721.946533,642.053406 722.000366,642.030823 722.043457,642.283325 
	C722.387390,642.713989 722.688293,642.892212 722.989136,643.070496 
	C722.989136,643.070496 722.995605,643.007874 723.288757,643.300415 
	C743.226257,643.690552 762.870544,643.788086 782.514893,643.885620 
z"/>
<path fill="#FE8821" opacity="1.000000" stroke="none" 
	d="
M488.079895,643.581970 
	C498.050140,643.295166 508.029816,643.092529 518.010498,643.000183 
	C526.006897,642.926270 534.004578,642.994080 542.001648,642.984680 
	C549.942688,642.975403 550.982544,641.964783 550.983643,634.121948 
	C550.991455,575.309937 550.974915,516.497925 551.008057,457.685883 
	C551.012390,450.038635 551.257080,442.391510 551.668518,434.859314 
	C551.968384,437.139557 552.004089,439.304810 552.009888,441.470123 
	C552.075928,465.952606 552.137390,490.435120 552.200073,514.917603 
	C552.133118,531.730896 551.989929,548.544434 552.046631,565.357300 
	C552.063232,570.279846 552.648376,575.200439 552.649170,580.907898 
	C552.239258,601.492737 552.153076,621.291687 552.066895,641.090576 
	C551.326233,642.070679 550.585571,643.050781 549.020630,644.039490 
	C528.316589,644.009094 508.436737,643.970032 488.556885,643.930969 
	C488.352966,643.961060 488.197266,643.888672 488.079895,643.581970 
z"/>
<path fill="#FFBD80" opacity="1.000000" stroke="none" 
	d="
M783.895386,362.085419 
	C783.909851,361.856934 783.924255,361.628418 783.942017,361.054718 
	C784.628357,362.745789 785.902039,364.780426 785.907654,366.818573 
	C786.038696,414.259155 786.032288,461.700134 786.209106,509.602661 
	C785.969299,510.424622 785.571716,510.784912 784.994019,510.581848 
	C784.828186,499.899628 784.912964,489.780334 784.842834,479.662079 
	C784.671265,454.927399 784.421387,430.193268 784.216187,405.458801 
	C784.096191,391.001129 784.001465,376.543213 783.895386,362.085419 
z"/>
<path fill="#FE8821" opacity="1.000000" stroke="none" 
	d="
M95.340118,626.999756 
	C96.153778,626.767517 97.536896,626.227295 98.374359,626.685181 
	C114.583214,635.547180 131.580490,642.031189 150.039886,644.245667 
	C171.041260,646.765137 191.752884,645.878723 211.969818,639.029785 
	C213.362610,638.557983 214.852341,638.372253 216.554352,638.323975 
	C216.554077,639.088562 216.296432,639.582703 216.038788,640.076843 
	C216.038773,640.076843 216.012451,639.998352 215.704407,639.861450 
	C214.597794,640.178467 213.799240,640.632507 213.000687,641.086487 
	C213.000687,641.086487 213.008698,641.019714 212.662018,640.945435 
	C210.709442,641.550171 209.103561,642.229126 207.497665,642.908142 
	C207.497665,642.908142 207.506912,642.984497 207.084991,642.826172 
	C205.433594,643.140015 204.204132,643.612244 202.974670,644.084412 
	C202.974670,644.084412 203.003128,644.003479 202.650467,643.970764 
	C200.856277,644.316956 199.414734,644.695923 197.973206,645.074829 
	C197.973206,645.074829 198.004303,645.005066 197.632629,644.943481 
	C195.497086,645.289246 193.733231,645.696533 191.969360,646.103760 
	C191.969376,646.103821 191.953995,645.985291 191.865234,646.120117 
	C191.529755,646.390259 191.336395,646.579895 191.196396,646.823914 
	C189.437912,646.883972 187.679413,646.944031 185.016373,646.988403 
	C171.254730,646.619507 158.397659,646.266418 145.540573,645.913330 
	C145.540573,645.913330 145.488449,645.959961 145.160583,645.665649 
	C143.531708,645.259399 142.230713,645.147461 140.929703,645.035583 
	C140.929703,645.035583 140.994385,645.008240 140.794495,644.726685 
	C137.995041,643.959534 135.395462,643.473938 132.795868,642.988403 
	C119.309723,640.305725 107.242798,634.293701 95.340118,626.999756 
z"/>
<path fill="#FE8821" opacity="1.000000" stroke="none" 
	d="
M782.780518,643.947754 
	C762.870544,643.788086 743.226257,643.690552 723.261597,643.316406 
	C740.558838,643.020752 758.176392,643.014282 775.793945,642.975891 
	C782.120667,642.962158 782.980225,642.105408 782.991943,635.748413 
	C783.018799,621.122498 782.958801,606.496094 783.055908,591.870789 
	C783.068237,590.011536 783.808960,588.157104 784.546448,586.604370 
	C784.712891,591.877441 784.406738,596.846436 784.404236,601.815613 
	C784.397766,614.592957 784.525940,627.370361 784.600281,640.147705 
	C784.082275,641.435059 783.564270,642.722412 782.780518,643.947754 
z"/>
<path fill="#FE8821" opacity="1.000000" stroke="none" 
	d="
M33.006275,474.002625 
	C32.949326,478.868622 32.795593,483.735779 32.854687,488.600342 
	C32.997158,500.329132 32.540451,512.121216 33.616005,523.768616 
	C34.993252,538.683167 39.021488,553.092285 45.285759,566.802612 
	C45.630878,567.557922 44.972752,568.771729 44.469757,569.869385 
	C42.110615,564.964417 40.063313,559.962158 38.052521,554.220398 
	C37.700943,552.647766 37.312855,551.814636 36.924767,550.981567 
	C36.924767,550.981567 36.993664,551.008423 37.035950,550.689514 
	C36.692051,549.577087 36.305866,548.783569 35.919685,547.990051 
	C35.919682,547.990051 35.985542,548.004150 36.067333,547.666870 
	C35.741322,546.212280 35.333515,545.094910 34.925705,543.977600 
	C34.925701,543.977600 34.997307,544.005371 35.043701,543.608643 
	C34.193546,537.819763 33.135483,532.448547 32.430099,527.031433 
	C30.125965,509.336426 29.829294,491.646179 33.006275,474.002625 
z"/>
<path fill="#FE8821" opacity="1.000000" stroke="none" 
	d="
M192.142334,361.972168 
	C181.699356,361.644836 171.258484,361.187500 160.812943,361.019836 
	C143.914978,360.748566 128.015427,365.121826 112.577934,371.644928 
	C110.447960,372.544922 107.950439,372.575104 105.361023,372.776062 
	C109.854561,370.692230 114.549004,368.658447 119.381012,367.033813 
	C125.599625,364.942993 131.928528,363.180206 139.009186,361.180237 
	C150.745468,360.412018 161.681717,359.264069 172.619781,359.246490 
	C179.125824,359.236053 185.634720,361.003845 192.142334,361.972168 
z"/>
<path fill="#FE8821" opacity="1.000000" stroke="none" 
	d="
M409.171387,566.774109 
	C408.449951,565.191895 407.102386,563.611145 407.098572,562.027161 
	C406.997986,520.408691 407.035248,478.789825 407.066223,437.171021 
	C407.066589,436.689331 407.293732,436.207794 407.676331,435.847687 
	C407.962128,475.653595 407.973633,515.338013 408.047333,555.022400 
	C408.051208,557.119629 408.581543,559.216003 408.866821,561.312744 
	C408.866821,561.312744 408.998901,561.428955 408.857361,561.935364 
	C408.867645,563.885864 409.019501,565.330017 409.171387,566.774109 
z"/>
<path fill="#FFBD80" opacity="1.000000" stroke="none" 
	d="
M486.071198,522.969482 
	C486.045624,523.735962 486.020050,524.502380 486.015137,526.110229 
	C486.052887,530.956177 486.070038,534.960754 486.087189,538.965271 
	C486.064758,539.433411 486.042297,539.901611 486.025909,541.181274 
	C485.347839,549.283569 484.663727,556.574341 483.979584,563.865051 
	C484.359802,520.009583 484.740051,476.154083 485.526245,432.120514 
	C485.976746,432.726868 486.021240,433.511261 486.054565,435.107849 
	C486.057526,437.589142 486.071655,439.258301 486.085815,440.927460 
	C486.065979,441.397217 486.046143,441.867004 486.034302,443.152527 
	C486.050232,464.969391 486.058197,485.970459 486.066162,506.971527 
	C486.043243,507.428802 486.020325,507.886078 486.010986,509.147156 
	C486.040100,514.290466 486.055634,518.630005 486.071198,522.969482 
z"/>
<path fill="#FFBD80" opacity="1.000000" stroke="none" 
	d="
M408.925323,560.816040 
	C408.581543,559.216003 408.051208,557.119629 408.047333,555.022400 
	C407.973633,515.338013 407.962128,475.653595 407.900696,435.505066 
	C407.824341,434.570770 407.784973,434.100616 407.614990,433.299927 
	C407.513367,432.716949 407.542297,432.464508 407.745422,431.872864 
	C408.282684,433.043335 408.961151,434.552612 408.962952,436.062653 
	C409.012024,477.481537 408.992157,518.900452 408.925323,560.816040 
z"/>
<path fill="#FFBD80" opacity="1.000000" stroke="none" 
	d="
M33.002010,473.657288 
	C29.829294,491.646179 30.125965,509.336426 32.430099,527.031433 
	C33.135483,532.448547 34.193546,537.819763 35.029617,543.644409 
	C33.315735,536.105225 31.030304,528.203796 30.136093,520.147949 
	C28.060282,501.447144 29.560835,482.817596 33.031643,464.362274 
	C33.738628,460.602997 35.135849,456.973541 36.607227,453.136414 
	C36.999580,452.988586 37.092651,453.055634 37.126823,453.467163 
	C36.368523,457.580109 35.576050,461.281494 34.783577,464.982910 
	C34.544453,465.484772 34.305328,465.986603 34.018105,467.126465 
	C33.700001,469.156708 33.429996,470.548950 33.159992,471.941193 
	C33.105907,472.398102 33.051826,472.855011 33.002010,473.657288 
z"/>
<path fill="#FFBD80" opacity="1.000000" stroke="none" 
	d="
M602.982422,496.561951 
	C602.446350,496.418091 601.910217,496.274261 601.103638,496.057861 
	C603.436829,494.987854 606.028381,493.165497 608.646301,493.126770 
	C625.763550,492.873199 642.886658,492.975739 660.007385,493.062653 
	C661.560913,493.070526 663.110901,493.789154 664.845398,494.530151 
	C646.730469,494.843506 628.432739,494.785980 610.134949,494.792023 
	C608.161804,494.792694 606.188782,495.162109 603.791016,495.766357 
	C603.232727,496.296570 603.104736,496.426483 602.982422,496.561951 
z"/>
<path fill="#FE8821" opacity="1.000000" stroke="none" 
	d="
M781.100708,357.892700 
	C779.460083,358.596008 777.790771,359.899109 776.112183,359.911285 
	C758.339050,360.039856 740.564453,359.963043 722.394775,359.613464 
	C722.131958,358.899536 722.264648,358.514954 722.397339,358.130371 
	C722.397339,358.130371 722.488342,357.995636 723.057007,358.074219 
	C742.774353,358.088165 761.922974,358.023590 781.071655,357.959015 
	C781.071655,357.959015 781.067688,357.893188 781.100708,357.892700 
z"/>
<path fill="#FFBD80" opacity="1.000000" stroke="none" 
	d="
M855.088989,642.420166 
	C855.296204,642.034790 855.670959,642.025452 856.697632,642.303223 
	C858.990112,642.739807 860.630798,643.019043 862.271423,643.019165 
	C884.167419,643.021484 906.063477,642.984741 927.982361,642.979858 
	C928.005249,643.001953 928.051636,643.045532 928.051636,643.045532 
	C921.978882,643.684204 915.905579,644.864380 909.833557,644.857727 
	C893.153076,644.839417 876.472534,644.352051 859.794250,643.955200 
	C858.273376,643.919006 856.768738,643.198792 855.088989,642.420166 
z"/>
<path fill="#FF9537" opacity="1.000000" stroke="none" 
	d="
M667.941040,637.488525 
	C667.582886,636.511597 667.040161,635.076172 667.037720,633.639893 
	C666.988892,604.983887 666.998413,576.327759 667.021057,547.671692 
	C667.021790,546.690308 667.281189,545.709106 667.637085,544.381104 
	C667.905396,575.032776 667.956726,606.031189 667.941040,637.488525 
z"/>
<path fill="#FFBD80" opacity="1.000000" stroke="none" 
	d="
M192.378433,361.991547 
	C185.634720,361.003845 179.125824,359.236053 172.619781,359.246490 
	C161.681717,359.264069 150.745468,360.412018 139.359589,361.017456 
	C144.888428,359.965759 150.835159,358.446075 156.849701,358.097809 
	C174.053787,357.101593 191.088821,358.522736 207.809097,363.699341 
	C207.848907,364.246582 207.584747,364.634399 207.202240,364.517090 
	C202.240097,363.631348 197.660492,362.862976 193.080872,362.094574 
	C193.080872,362.094574 192.614532,362.010925 192.378433,361.991547 
z"/>
<path fill="#FFBD80" opacity="1.000000" stroke="none" 
	d="
M548.036438,428.703369 
	C547.967163,429.201965 547.610962,429.342804 546.573120,429.635223 
	C527.503296,429.539246 509.115082,429.291656 490.726868,429.044098 
	C491.238586,428.705383 491.751160,428.069336 492.261871,428.070831 
	C510.757874,428.125580 529.253662,428.239716 548.036438,428.703369 
z"/>
<path fill="#FFBD80" opacity="1.000000" stroke="none" 
	d="
M552.536499,514.672546 
	C552.137390,490.435120 552.075928,465.952606 552.009888,441.470123 
	C552.004089,439.304810 551.968384,437.139557 551.884888,434.513092 
	C551.564697,433.140472 551.306213,432.229004 550.998413,430.959991 
	C551.632263,432.190613 552.905762,433.777008 552.910706,435.367310 
	C552.992493,461.720398 552.914856,488.074005 552.536499,514.672546 
z"/>
<path fill="#FE8821" opacity="1.000000" stroke="none" 
	d="
M490.588745,429.019073 
	C509.115082,429.291656 527.503296,429.539246 546.339111,429.801819 
	C546.936829,429.886475 547.153870,429.916931 547.222595,430.034271 
	C547.354187,430.258942 547.401489,430.532990 547.483826,430.786560 
	C546.682861,430.860870 545.881958,430.999481 545.080933,430.999969 
	C528.204163,431.009827 511.327240,431.030457 494.450836,430.951630 
	C493.100006,430.945343 491.752472,430.232483 490.301514,429.483948 
	C490.199615,429.119965 490.450592,428.994049 490.588745,429.019073 
z"/>
<path fill="#FFBD80" opacity="1.000000" stroke="none" 
	d="
M488.838257,644.281982 
	C508.436737,643.970032 528.316589,644.009094 548.675842,644.032104 
	C547.635498,644.331116 546.117432,644.909058 544.595581,644.919250 
	C532.929626,644.997437 521.262634,645.004028 509.596375,644.952454 
	C502.770447,644.922241 495.945221,644.744385 488.838257,644.281982 
z"/>
<path fill="#FFBD80" opacity="1.000000" stroke="none" 
	d="
M908.032532,430.080078 
	C907.264709,430.055603 906.496948,430.031158 904.881714,430.023926 
	C887.365662,430.114532 870.697021,430.187897 854.028442,430.261261 
	C854.028442,430.261261 853.929016,430.070892 853.821594,430.048462 
	C855.229614,429.683136 856.743958,429.047516 858.260681,429.041718 
	C877.153564,428.969360 896.046875,428.954285 914.939514,429.043213 
	C916.600586,429.050995 918.257629,429.893066 920.170532,430.700073 
	C920.171997,431.069000 919.919556,431.085419 918.893250,431.020447 
	C914.757080,430.652710 911.394836,430.366394 908.032532,430.080078 
z"/>
<path fill="#FFBD80" opacity="1.000000" stroke="none" 
	d="
M406.177246,429.729950 
	C386.587860,429.736755 366.723267,429.414246 346.392822,429.005249 
	C347.279694,428.612274 348.631531,428.043671 349.985260,428.039124 
	C366.773163,427.982422 383.561615,427.964752 400.349030,428.072998 
	C402.202820,428.084930 404.051178,428.937805 406.177246,429.729950 
z"/>
<path fill="#FFBD80" opacity="1.000000" stroke="none" 
	d="
M340.676147,432.969055 
	C341.063293,451.568054 341.084503,470.425507 341.062897,489.282898 
	C341.061005,490.924408 340.777710,492.565582 340.410217,494.547058 
	C340.229828,474.333984 340.264313,453.780731 340.676147,432.969055 
z"/>
<path fill="#FFBD80" opacity="1.000000" stroke="none" 
	d="
M552.449585,640.873291 
	C552.153076,621.291687 552.239258,601.492737 552.580933,581.371216 
	C552.835022,600.917725 552.833679,620.786865 552.449585,640.873291 
z"/>
<path fill="#FFBD80" opacity="1.000000" stroke="none" 
	d="
M785.051147,640.021973 
	C784.525940,627.370361 784.397766,614.592957 784.404236,601.815613 
	C784.406738,596.846436 784.712891,591.877441 784.905457,586.448547 
	C785.173096,585.984619 785.415894,585.980469 786.023865,585.958496 
	C786.258484,601.976685 786.143188,618.012939 785.977661,634.048584 
	C785.957520,635.999207 785.667053,637.947021 785.051147,640.021973 
z"/>
<path fill="#FFBD80" opacity="1.000000" stroke="none" 
	d="
M780.873657,357.563782 
	C761.922974,358.023590 742.774353,358.088165 723.126099,358.117096 
	C723.636658,357.720703 724.646790,357.046173 725.657104,357.045746 
	C743.996582,357.038330 762.336121,357.112091 780.873657,357.563782 
z"/>
<path fill="#FFBD80" opacity="1.000000" stroke="none" 
	d="
M303.449280,538.853882 
	C304.096741,531.540161 305.424561,524.069092 305.996765,516.540649 
	C306.670868,507.671387 306.690399,498.752350 307.013062,489.380493 
	C307.354309,489.588928 307.935760,490.262634 307.960144,490.955902 
	C308.525787,507.028564 307.571899,522.974854 303.449280,538.853882 
z"/>
<path fill="#FFBD80" opacity="1.000000" stroke="none" 
	d="
M340.132935,538.578918 
	C340.476440,539.731445 340.951508,541.332458 341.001892,542.946838 
	C341.411072,556.057922 341.740662,569.171509 342.060272,582.753967 
	C341.347900,579.628845 340.161987,576.044678 340.086212,572.437195 
	C339.852448,561.307495 340.042358,550.168823 340.132935,538.578918 
z"/>
<path fill="#FFBD80" opacity="1.000000" stroke="none" 
	d="
M145.795685,646.290039 
	C158.397659,646.266418 171.254730,646.619507 184.578827,647.036865 
	C184.366608,647.401428 183.678528,647.981567 183.009399,647.960449 
	C170.688522,647.572083 158.369904,647.111816 145.795685,646.290039 
z"/>
<path fill="#FE8821" opacity="1.000000" stroke="none" 
	d="
M483.678345,564.001099 
	C484.663727,556.574341 485.347839,549.283569 486.056824,541.531860 
	C488.100922,550.026062 488.394165,558.877136 484.212494,567.462769 
	C483.678009,566.970093 483.419525,566.489563 483.161072,566.008972 
	C483.233063,565.385010 483.305084,564.761108 483.678345,564.001099 
z"/>
<path fill="#FFBD80" opacity="1.000000" stroke="none" 
	d="
M585.604736,395.056488 
	C585.970215,402.057983 585.988586,409.239868 586.031311,416.876953 
	C581.680481,410.115479 582.616089,402.707001 585.604736,395.056488 
z"/>
<path fill="#FFBD80" opacity="1.000000" stroke="none" 
	d="
M631.603882,367.960052 
	C627.043823,368.297119 622.058228,368.666809 616.617554,369.003113 
	C621.167664,368.643982 626.173035,368.318329 631.603882,367.960052 
z"/>
<path fill="#FE8821" opacity="1.000000" stroke="none" 
	d="
M41.084534,441.383270 
	C44.300312,444.874268 40.994396,447.587341 39.232002,450.368225 
	C38.951679,449.055084 38.953415,447.988190 38.955147,446.921265 
	C38.955147,446.921265 38.978680,446.985138 39.261814,446.863922 
	C39.697983,446.102020 39.851021,445.461334 40.004063,444.820648 
	C40.339493,443.785217 40.674919,442.749756 41.084534,441.383270 
z"/>
<path fill="#FFBD80" opacity="1.000000" stroke="none" 
	d="
M306.038635,480.590820 
	C305.023071,475.947998 303.971558,470.865295 302.982086,465.355774 
	C304.030304,470.002930 305.016479,475.076904 306.038635,480.590820 
z"/>
<path fill="#FFBD80" opacity="1.000000" stroke="none" 
	d="
M132.992523,643.338013 
	C135.395462,643.473938 137.995041,643.959534 140.806702,644.759644 
	C138.408905,644.612000 135.799026,644.149902 132.992523,643.338013 
z"/>
<path fill="#FF9537" opacity="1.000000" stroke="none" 
	d="
M667.923950,509.529236 
	C667.715271,506.883728 667.576904,503.791351 667.655640,500.376465 
	C667.913208,503.063416 667.953674,506.072906 667.923950,509.529236 
z"/>
<path fill="#FF9537" opacity="1.000000" stroke="none" 
	d="
M482.998291,566.337158 
	C483.419525,566.489563 483.678009,566.970093 483.965271,567.728271 
	C483.994049,568.005920 484.000793,567.998535 483.789673,568.192261 
	C483.383972,568.926392 483.189392,569.466858 482.994812,570.007263 
	C482.994812,570.007263 483.000000,570.000000 482.796082,570.192749 
	C482.401398,570.913574 482.210663,571.441650 482.019897,571.969788 
	C482.019897,571.969788 481.998932,571.996521 481.699432,572.004028 
	C481.207794,572.002441 481.015656,571.993469 480.823547,571.984558 
	C481.494202,570.211487 482.164886,568.438477 482.998291,566.337158 
z"/>
<path fill="#FFBD80" opacity="1.000000" stroke="none" 
	d="
M303.050049,464.612427 
	C302.375763,462.907349 301.672272,460.804993 301.003021,458.309570 
	C301.698456,460.016022 302.359680,462.115601 303.050049,464.612427 
z"/>
<path fill="#FFBD80" opacity="1.000000" stroke="none" 
	d="
M307.046875,488.598755 
	C306.704010,486.615540 306.322571,484.196991 305.989777,481.345459 
	C306.361694,483.329498 306.684998,485.746460 307.046875,488.598755 
z"/>
<path fill="#FFBD80" opacity="1.000000" stroke="none" 
	d="
M928.325684,641.059753 
	C928.529419,639.601501 928.733093,638.143188 928.987061,636.307373 
	C928.943237,638.203308 928.848999,640.476807 928.403198,642.897949 
	C928.051636,643.045532 928.005249,643.001953 927.984009,642.655212 
	C928.083679,641.892212 928.204651,641.476013 928.325684,641.059753 
z"/>
<path fill="#FFBD80" opacity="1.000000" stroke="none" 
	d="
M38.622360,447.088074 
	C38.953415,447.988190 38.951679,449.055084 38.912674,450.520142 
	C38.875397,450.918243 38.911060,450.964630 38.713257,451.137695 
	C38.041191,451.892426 37.566929,452.474030 37.092659,453.055634 
	C37.092651,453.055634 36.999580,452.988586 36.953350,452.954620 
	C37.367939,451.032043 37.828758,449.143463 38.622360,447.088074 
z"/>
<path fill="#FFBD80" opacity="1.000000" stroke="none" 
	d="
M640.740662,359.783508 
	C639.909729,360.729919 638.767639,361.841522 637.276550,362.961548 
	C638.094849,361.962891 639.262207,360.955780 640.740662,359.783508 
z"/>
<path fill="#FFBD80" opacity="1.000000" stroke="none" 
	d="
M207.904602,642.948914 
	C209.103561,642.229126 210.709442,641.550171 212.692429,640.959717 
	C211.483521,641.695496 209.897522,642.342590 207.904602,642.948914 
z"/>
<path fill="#FFBD80" opacity="1.000000" stroke="none" 
	d="
M192.383392,646.058960 
	C193.733231,645.696533 195.497086,645.289246 197.667389,644.959290 
	C196.315048,645.362488 194.556244,645.688354 192.383392,646.058960 
z"/>
<path fill="#FFBD80" opacity="1.000000" stroke="none" 
	d="
M409.333893,566.813416 
	C409.019501,565.330017 408.867645,563.885864 408.805786,562.006653 
	C409.255859,563.074890 409.615906,564.578247 409.902344,566.485657 
	C409.828796,566.889709 409.496399,566.852722 409.333893,566.813416 
z"/>
<path fill="#FFBD80" opacity="1.000000" stroke="none" 
	d="
M216.379837,640.037231 
	C216.296432,639.582703 216.554077,639.088562 216.959778,638.343262 
	C217.107834,638.092163 217.064407,638.035645 217.357452,638.067688 
	C218.068863,638.020569 218.487244,637.941406 218.905609,637.862244 
	C219.093079,637.896301 219.280548,637.930359 219.741898,638.045776 
	C218.917480,638.750610 217.819183,639.374146 216.379837,640.037231 
z"/>
<path fill="#FF9537" opacity="1.000000" stroke="none" 
	d="
M667.923584,525.568970 
	C667.722046,524.508545 667.590576,523.040283 667.656006,521.302979 
	C667.899780,522.409668 667.946716,523.785339 667.923584,525.568970 
z"/>
<path fill="#FF9537" opacity="1.000000" stroke="none" 
	d="
M667.923828,531.568787 
	C667.722351,530.508362 667.591003,529.039978 667.656738,527.302856 
	C667.900513,528.409607 667.947266,529.785278 667.923828,531.568787 
z"/>
<path fill="#FFBD80" opacity="1.000000" stroke="none" 
	d="
M198.370392,645.037720 
	C199.414734,644.695923 200.856277,644.316956 202.690842,643.985229 
	C201.645111,644.355164 200.206345,644.677917 198.370392,645.037720 
z"/>
<path fill="#FFBD80" opacity="1.000000" stroke="none" 
	d="
M141.123291,645.395752 
	C142.230713,645.147461 143.531708,645.259399 145.144455,645.634644 
	C144.076431,645.850586 142.696655,645.803223 141.123291,645.395752 
z"/>
<path fill="#FE8821" opacity="1.000000" stroke="none" 
	d="
M480.549438,572.111450 
	C481.015656,571.993469 481.207794,572.002441 481.688019,572.016602 
	C481.559265,572.625366 481.142426,573.229004 480.442566,573.909790 
	C480.198151,573.404114 480.236755,572.821228 480.549438,572.111450 
z"/>
<path fill="#FFBD80" opacity="1.000000" stroke="none" 
	d="
M34.959198,544.359741 
	C35.333515,545.094910 35.741322,546.212280 36.053875,547.697754 
	C35.636646,546.957886 35.314663,545.849854 34.959198,544.359741 
z"/>
<path fill="#FA8D32" opacity="1.000000" stroke="none" 
	d="
M676.897217,444.679016 
	C676.660889,444.383545 676.494385,443.751801 676.576294,443.052002 
	C676.872192,443.436829 676.919617,443.889801 676.897217,444.679016 
z"/>
<path fill="#FFBD80" opacity="1.000000" stroke="none" 
	d="
M203.386948,644.049500 
	C204.204132,643.612244 205.433594,643.140015 207.062790,642.794800 
	C206.241425,643.286011 205.020325,643.650330 203.386948,644.049500 
z"/>
<path fill="#FFBD80" opacity="1.000000" stroke="none" 
	d="
M213.363708,641.058105 
	C213.799240,640.632507 214.597794,640.178467 215.725693,639.897522 
	C215.278946,640.390259 214.502838,640.709961 213.363708,641.058105 
z"/>
<path fill="#FFBD80" opacity="1.000000" stroke="none" 
	d="
M213.949707,365.628082 
	C213.596710,365.997955 213.113205,366.041107 212.057892,365.970123 
	C211.166321,365.677917 210.995621,365.406189 210.995407,365.011963 
	C211.016815,364.983154 211.061844,364.927185 211.061844,364.927185 
	C211.980957,365.051910 212.900070,365.176636 213.949707,365.628082 
z"/>
<path fill="#FFBD80" opacity="1.000000" stroke="none" 
	d="
M722.059814,358.088348 
	C722.264648,358.514954 722.131958,358.899536 721.916931,359.577240 
	C721.834595,359.870331 721.874268,359.930206 721.672607,359.978577 
	C721.186829,360.192993 720.945984,360.407654 720.748413,360.670868 
	C720.601562,360.536163 720.454651,360.401459 720.088867,360.063110 
	C720.487427,359.255096 721.104858,358.650726 722.059814,358.088348 
z"/>
<path fill="#FFBD80" opacity="1.000000" stroke="none" 
	d="
M36.959259,551.349854 
	C37.312855,551.814636 37.700943,552.647766 38.059357,553.849487 
	C37.684372,553.384827 37.339062,552.551514 36.959259,551.349854 
z"/>
<path fill="#FFBD80" opacity="1.000000" stroke="none" 
	d="
M35.953022,548.346375 
	C36.305866,548.783569 36.692051,549.577087 37.022171,550.723755 
	C36.639526,550.285522 36.312943,549.494141 35.953022,548.346375 
z"/>
<path fill="#FFBD80" opacity="1.000000" stroke="none" 
	d="
M636.674438,363.004517 
	C636.508057,363.598114 636.046692,364.271576 635.253845,364.958374 
	C635.408081,364.342621 635.893799,363.713501 636.674438,363.004517 
z"/>
<path fill="#FFBD80" opacity="1.000000" stroke="none" 
	d="
M207.986237,364.056335 
	C209.012817,364.011658 209.902054,364.157288 210.926575,364.615051 
	C211.061844,364.927185 211.016815,364.983154 210.654953,365.065155 
	C209.390305,364.976257 208.487534,364.805328 207.584747,364.634399 
	C207.584747,364.634399 207.848907,364.246582 207.986237,364.056335 
z"/>
<path fill="#FFBD80" opacity="1.000000" stroke="none" 
	d="
M216.939270,366.636047 
	C216.189941,366.802765 215.293121,366.643707 214.191467,366.203613 
	C214.921692,366.051788 215.856750,366.181030 216.939270,366.636047 
z"/>
<path fill="#FFBD80" opacity="1.000000" stroke="none" 
	d="
M301.055237,457.657227 
	C300.725494,457.208313 300.361938,456.401489 300.021667,455.239075 
	C300.370453,455.688751 300.695953,456.494049 301.055237,457.657227 
z"/>
<path fill="#FFBD80" opacity="1.000000" stroke="none" 
	d="
M633.568970,366.515625 
	C633.448425,367.114502 633.005554,367.542877 632.238403,367.969940 
	C632.358276,367.427460 632.802429,366.886292 633.568970,366.515625 
z"/>
<path fill="#FFBD80" opacity="1.000000" stroke="none" 
	d="
M39.699966,444.957825 
	C39.851021,445.461334 39.697983,446.102020 39.227943,446.860718 
	C39.072578,446.350830 39.234226,445.722900 39.699966,444.957825 
z"/>
<path fill="#FFBD80" opacity="1.000000" stroke="none" 
	d="
M218.864548,367.773254 
	C218.321289,367.876892 217.804184,367.640930 217.137848,367.158203 
	C217.622635,367.085541 218.256668,367.259583 218.864548,367.773254 
z"/>
<path fill="#FFBD80" opacity="1.000000" stroke="none" 
	d="
M634.640442,365.046082 
	C634.739075,365.496613 634.509094,366.067505 633.976807,366.753052 
	C633.886963,366.300659 634.099426,365.733551 634.640442,365.046082 
z"/>
<path fill="#FFBD80" opacity="1.000000" stroke="none" 
	d="
M191.427444,646.801453 
	C191.336395,646.579895 191.529755,646.390259 191.924194,646.110535 
	C192.054443,646.298340 191.916626,646.569336 191.427444,646.801453 
z"/>
<path fill="#FFBD80" opacity="1.000000" stroke="none" 
	d="
M853.961304,641.271973 
	C854.169678,641.199524 854.469299,641.394897 854.885132,641.834717 
	C854.684998,641.899353 854.368835,641.719543 853.961304,641.271973 
z"/>
<path fill="#FFBD80" opacity="1.000000" stroke="none" 
	d="
M853.245972,640.556641 
	C853.426086,640.466980 853.608276,640.629578 853.891846,640.959045 
	C853.747131,641.073364 853.498718,640.967712 853.245972,640.556641 
z"/>
<path fill="#FFBD80" opacity="1.000000" stroke="none" 
	d="
M928.995300,635.711548 
	C928.784607,635.754272 928.496216,635.506897 928.079285,634.990295 
	C928.273010,634.954529 928.595337,635.187988 928.995300,635.711548 
z"/>
<path fill="#FFBD80" opacity="1.000000" stroke="none" 
	d="
M300.048248,454.841187 
	C299.933136,454.865509 299.821350,454.678680 299.782471,454.383728 
	C299.819855,454.286835 300.015961,454.641266 300.048248,454.841187 
z"/>
<path fill="#FFBD80" opacity="1.000000" stroke="none" 
	d="
M486.792725,430.805206 
	C486.853790,430.991943 486.665649,431.353699 486.200806,431.846558 
	C486.130524,431.645203 486.337006,431.312714 486.792725,430.805206 
z"/>
<path fill="#FFBD80" opacity="1.000000" stroke="none" 
	d="
M97.482697,484.266785 
	C97.522461,491.357300 96.993546,498.578003 96.996445,505.798523 
	C96.998871,511.840820 97.622932,517.882812 97.959503,524.358154 
	C94.834427,511.383057 93.454468,497.940369 97.482697,484.266785 
z"/>
<path fill="#FFBD80" opacity="1.000000" stroke="none" 
	d="
M184.791153,422.794098 
	C182.583832,423.459625 180.144211,423.828339 177.704605,424.197052 
	C177.652069,423.912170 177.599533,423.627319 177.547012,423.342438 
	C178.520279,423.070709 179.493546,422.799011 180.503479,422.517059 
	C169.793091,419.499603 159.321579,421.409180 148.407684,423.041809 
	C157.152084,418.557678 166.897858,419.989868 176.512512,420.534607 
	C179.222992,420.688171 181.878265,421.816193 184.791153,422.794098 
z"/>
<path fill="#FFBD80" opacity="1.000000" stroke="none" 
	d="
M239.187561,515.625732 
	C238.945160,506.937012 238.967789,497.936249 238.911530,488.471802 
	C239.268051,492.355652 239.977081,496.697601 240.065109,501.052094 
	C240.161087,505.799896 239.681366,510.559296 239.187561,515.625732 
z"/>
<path fill="#FE8821" opacity="1.000000" stroke="none" 
	d="
M207.202240,364.517090 
	C208.487534,364.805328 209.390305,364.976257 210.633545,365.093994 
	C210.995621,365.406189 211.166321,365.677917 211.693878,365.993866 
	C205.806549,364.941040 199.711441,363.750336 193.348602,362.327087 
	C197.660492,362.862976 202.240097,363.631348 207.202240,364.517090 
z"/>
<path fill="#FE8821" opacity="1.000000" stroke="none" 
	d="
M37.126831,453.467163 
	C37.566929,452.474030 38.041191,451.892426 38.736713,451.120972 
	C37.794682,455.502319 36.631397,460.073486 35.125847,464.813782 
	C35.576050,461.281494 36.368523,457.580109 37.126831,453.467163 
z"/>
<path fill="#FE8821" opacity="1.000000" stroke="none" 
	d="
M33.474098,471.841919 
	C33.429996,470.548950 33.700001,469.156708 34.019806,467.411560 
	C33.975807,468.619965 33.882004,470.181305 33.474098,471.841919 
z"/>
<path fill="#FFBD80" opacity="1.000000" stroke="none" 
	d="
M144.745697,424.020386 
	C144.294128,424.360809 143.492996,424.684448 142.336517,425.071960 
	C142.786163,424.758453 143.591156,424.381012 144.745697,424.020386 
z"/>
<path fill="#FFBD80" opacity="1.000000" stroke="none" 
	d="
M187.893799,423.640228 
	C187.191818,423.803497 186.213806,423.751038 185.070160,423.367493 
	C185.808929,423.165741 186.713333,423.295105 187.893799,423.640228 
z"/>
<path fill="#FFBD80" opacity="1.000000" stroke="none" 
	d="
M147.744843,423.009216 
	C147.296677,423.364960 146.496704,423.689484 145.338440,424.053741 
	C145.784454,423.721649 146.588730,423.349823 147.744843,423.009216 
z"/>
<path fill="#FE8821" opacity="1.000000" stroke="none" 
	d="
M218.737976,637.696838 
	C218.487244,637.941406 218.068863,638.020569 217.329895,638.090271 
	C217.529633,637.897705 218.049988,637.714539 218.737976,637.696838 
z"/>
<path fill="#FFBD80" opacity="1.000000" stroke="none" 
	d="
M141.959015,425.114929 
	C142.067337,425.286377 141.931778,425.550812 141.470093,425.786835 
	C141.386108,425.573914 141.576508,425.390411 141.959015,425.114929 
z"/>
<path fill="#FE8821" opacity="1.000000" stroke="none" 
	d="
M720.564270,361.053894 
	C720.945984,360.407654 721.186829,360.192993 721.707642,359.971008 
	C721.954346,453.646698 721.964172,547.378296 721.960205,641.581665 
	C721.311279,639.790344 720.123901,637.527954 720.120972,635.263977 
	C720.020996,559.136841 720.015076,483.009552 720.046265,406.882294 
	C720.052429,391.733826 720.263550,376.585388 720.564270,361.053894 
z"/>
<path fill="#FE8821" opacity="1.000000" stroke="none" 
	d="
M783.656250,362.412598 
	C784.001465,376.543213 784.096191,391.001129 784.216187,405.458801 
	C784.421387,430.193268 784.671265,454.927399 784.842834,479.662079 
	C784.912964,489.780334 784.828186,499.899628 784.798218,510.465118 
	C784.185852,509.527618 783.070496,508.144440 783.067810,506.759094 
	C782.976746,459.563660 782.989136,412.368042 783.008362,365.172424 
	C783.008667,364.361481 783.274963,363.550629 783.656250,362.412598 
z"/>
<path fill="#FE8821" opacity="1.000000" stroke="none" 
	d="
M853.913513,430.481812 
	C870.697021,430.187897 887.365662,430.114532 904.499146,430.064453 
	C903.609131,430.721100 902.249084,431.911987 900.899841,431.899841 
	C889.841675,431.800293 878.786438,431.371246 867.728271,431.271790 
	C863.128357,431.230408 858.523438,431.746887 853.460449,432.004822 
	C853.000000,432.000000 853.002441,432.001617 853.002441,432.001617 
	C853.267822,431.568512 853.533203,431.135437 853.913513,430.481812 
z"/>
<path fill="#FE8821" opacity="1.000000" stroke="none" 
	d="
M927.881714,641.098755 
	C928.204651,641.476013 928.083679,641.892212 927.961060,642.633118 
	C906.063477,642.984741 884.167419,643.021484 862.271423,643.019165 
	C860.630798,643.019043 858.990112,642.739807 856.980469,642.326233 
	C877.754761,642.034302 898.898193,642.033630 920.041199,641.942017 
	C922.507874,641.931335 924.972290,641.418091 927.881714,641.098755 
z"/>
<path fill="#FE8821" opacity="1.000000" stroke="none" 
	d="
M908.138916,430.414062 
	C911.394836,430.366394 914.757080,430.652710 918.513977,431.032593 
	C915.354126,431.000122 911.799744,430.874115 908.138916,430.414062 
z"/>
<path fill="#FE8821" opacity="1.000000" stroke="none" 
	d="
M722.857544,642.855957 
	C722.688293,642.892212 722.387390,642.713989 722.014893,642.277527 
	C722.204102,642.226624 722.465027,642.434021 722.857544,642.855957 
z"/>
<path fill="#FE8821" opacity="1.000000" stroke="none" 
	d="
M852.998779,431.998779 
	C852.997559,431.997559 852.816650,432.321991 852.816650,432.321991 
	C852.816650,432.321991 852.826111,432.089996 852.914307,432.045807 
	C853.002441,432.001617 853.000000,432.000000 852.998779,431.998779 
z"/>
<path fill="#FE8821" opacity="1.000000" stroke="none" 
	d="
M486.429688,506.835510 
	C486.058197,485.970459 486.050232,464.969391 486.068604,443.503845 
	C486.696625,443.738281 487.822327,444.436157 487.823700,445.136261 
	C487.863647,465.285919 487.795959,485.435852 487.697235,505.585480 
	C487.695404,505.958252 487.107574,506.328186 486.429688,506.835510 
z"/>
<path fill="#FE8821" opacity="1.000000" stroke="none" 
	d="
M486.432800,522.834961 
	C486.055634,518.630005 486.040100,514.290466 486.044373,509.489380 
	C489.611053,513.408875 488.320282,518.048401 486.432800,522.834961 
z"/>
<path fill="#FE8821" opacity="1.000000" stroke="none" 
	d="
M486.414337,538.867920 
	C486.070038,534.960754 486.052887,530.956177 486.056641,526.492004 
	C486.592804,526.394226 487.568848,526.777771 487.552948,527.114624 
	C487.369293,531.004028 487.035461,534.886353 486.414337,538.867920 
z"/>
<path fill="#FE8821" opacity="1.000000" stroke="none" 
	d="
M486.308411,440.658203 
	C486.071655,439.258301 486.057526,437.589142 486.074829,435.505280 
	C486.247864,436.856689 486.389435,438.622833 486.308411,440.658203 
z"/>
<path fill="#FE8821" opacity="1.000000" stroke="none" 
	d="
M409.660583,569.989563 
	C409.660034,570.090027 409.341064,569.986450 409.341064,569.986450 
	C409.341064,569.986450 409.661133,569.889099 409.660583,569.989563 
z"/>
<path fill="#FE8821" opacity="1.000000" stroke="none" 
	d="
M482.232849,571.779541 
	C482.210663,571.441650 482.401398,570.913574 482.798584,570.188721 
	C482.818573,570.524414 482.632172,571.056885 482.232849,571.779541 
z"/>
<path fill="#FE8821" opacity="1.000000" stroke="none" 
	d="
M483.212036,569.811768 
	C483.189392,569.466858 483.383972,568.926392 483.792175,568.188110 
	C483.813629,568.532227 483.621460,569.074219 483.212036,569.811768 
z"/>
<path fill="#FA8D32" opacity="1.000000" stroke="none" 
	d="
M608.011902,464.983368 
	C608.011902,464.983368 608.316101,465.186798 608.316101,465.186798 
	C608.316101,465.186798 608.078552,465.181061 608.039429,465.090088 
	C608.000366,464.999084 608.011902,464.983368 608.011902,464.983368 
z"/>
<path fill="#FA8D32" opacity="1.000000" stroke="none" 
	d="
M607.992981,465.004761 
	C607.985596,465.010468 607.691833,464.804932 607.691833,464.804932 
	C607.691833,464.804932 607.921997,464.815857 607.966919,464.899597 
	C608.011902,464.983368 608.000366,464.999084 607.992981,465.004761 
z"/>
<path fill="#FF9537" opacity="1.000000" stroke="none" 
	d="
M602.988770,497.064514 
	C603.104736,496.426483 603.232727,496.296570 603.460266,496.076996 
	C621.617920,496.022858 639.681885,496.043884 657.745178,496.158813 
	C658.743408,496.165161 659.813965,496.828308 660.714661,497.400177 
	C662.172180,498.325562 663.516541,499.429077 665.738220,501.070038 
	C665.738220,505.301758 665.771606,510.716675 665.731445,516.131042 
	C665.640808,528.357422 665.583008,540.584717 665.372375,552.809204 
	C665.268188,558.857605 664.857239,564.900757 664.579041,570.946106 
	C664.556274,571.441528 664.432922,571.936523 664.447754,572.428955 
	C664.870483,586.475281 665.419861,600.518982 665.692078,614.568115 
	C665.843506,622.384888 665.471497,630.210510 665.464539,638.032227 
	C665.461365,641.595520 662.875977,640.689697 660.895630,641.004944 
	C647.115295,643.198975 633.500854,638.718750 619.744873,639.998352 
	C616.776978,640.274475 613.789551,640.406067 610.841797,640.821411 
	C605.363525,641.593384 602.883118,639.511780 603.021484,634.015991 
	C603.332764,621.648987 603.823914,609.283264 603.902710,596.914917 
	C603.939087,591.193420 603.581848,585.401978 602.668274,579.761292 
	C601.807190,574.445129 606.483704,576.999756 608.467285,574.882629 
	C603.340881,573.941956 604.387390,570.528503 604.389160,566.825806 
	C604.393066,558.547607 603.241577,550.273682 603.107849,541.989136 
	C602.997437,535.150391 603.949097,528.298035 603.927551,521.453308 
	C603.902527,513.490356 603.330017,505.529083 602.988770,497.064514 
z"/>
</svg>