<svg xmlns="http://www.w3.org/2000/svg" xml:space="preserve" viewBox="29 350 940 317">
    <defs>
        <filter id="shadow" x="-50%" y="-50%" width="200%" height="200%">
            <feDropShadow dx="12" dy="12" stdDeviation="9" flood-opacity="0.8"/>
        </filter>
    </defs>
     <g filter="url(#shadow)">
    <path fill="#ff9437" d="M95.0247 626.843c-20.5558-12.9942-36.6686-30.1118-48.0143-51.6698-.822-1.562-1.8751-3.0022-2.5248-4.95.4872-1.4515 1.1453-2.6653.8002-3.4206-6.2643-13.7103-10.2925-28.1194-11.6698-43.034-1.0755-11.6474-.6188-23.4395-.7613-35.1683-.0591-4.8645.0946-9.7317.1473-14.943.0498-.8023.104-1.2592.472-1.8154.408-1.6606.5018-3.222.594-5.0683.2373-.787.4765-1.2888 1.0578-1.9598 1.5056-4.7403 2.6689-9.3115 3.8087-13.8659-.0234.0167-.0591-.0297.2602-.1815 1.7997-3.179 5.1056-5.8921 1.964-9.7142 7.033-16.0803 16.705-30.307 29.032-42.8683 8.6173-8.7811 18.578-15.5642 29.0176-21.8178 1.7922-1.0736 3.4887-2.307 5.822-3.4124 2.9201-.3786 5.4177-.4088 7.5476-1.3088 15.4375-6.523 31.337-10.8963 48.235-10.625 10.4456.1676 20.8865.625 31.5655.9716.2361.0194.7025.103.9702.3356 6.3628 1.4232 12.458 2.614 18.917 3.7809.8476-.0669 1.3311-.11 1.8146-.1532 0 0-.0634.0322.1263.281 1.0866.408 1.9834.567 2.8803.726 0 0-.0748.0249.0628.234.6546.4451 1.1717.681 1.6888.917 6.8149 3.1715 13.9804 5.77 20.3502 9.6685 6.9608 4.2602 13.1978 9.7069 19.7283 14.6654 10.56 8.018 18.8066 18.2073 25.3866 29.489 5.8996 10.1152 10.4423 21.0218 15.5126 32.062.0052.681.117.8678.2644 1.0434 0 0-.096-.0612-.089.2462.3704 1.1142.734 1.921 1.0976 2.7278 0 0-.076-.023-.0982.3323.6814 2.4576 1.3849 4.56 2.0883 6.6623 0 0-.0653-.0196-.1122.3766 1.0046 5.479 2.056 10.5617 3.1076 15.6444 0 0-.0774-.041-.1054.3534.3534 2.8129.7348 5.2314 1.1162 7.65 0 0-.0903-.0375-.091.3916-.304 9.3266-.3235 18.2457-.9976 27.115-.5722 7.5284-1.9 14.9995-2.8935 22.496-2.8772 8.3697-4.8345 17.2152-8.8574 24.9924-5.3956 10.431-12.3948 20.0319-18.6843 30.0025-.5027.797-.8407 1.6978-1.3863 2.8197 8.9077 8.5293 17.8242 17.1442 26.8319 25.6627 5.3681 5.0768 5.4735 7.5224.0593 12.9714-8.2067 8.2593-16.4526 16.4797-24.6829 24.7156-8.6147 8.6205-12.4795 8.2148-19.9397-1.1115-5.3538-6.693-11.434-12.8-17.0269-19.309-2.0913-2.4338-3.7199-5.2653-5.6128-7.9924-4.6524 2.2104-8.852 4.2057-13.6939 6.1887-.8298-.0464-1.0172-.0805-1.3723-.28-.688.0177-1.2084.2009-1.7012.3614.0276-.0226.071.034-.3344.0147-1.85.2994-3.3398.485-4.7326.9569-20.217 6.849-40.9285 7.7353-61.93 5.2159-18.4593-2.2145-35.4566-8.6985-51.6654-17.5605-.8375-.4579-2.2206.0823-3.3497.1579m46.795-201.5815c-.2432.1288-.4336.3123-1.3296.7193-26.0076 10.7388-37.678 31.997-43.3457 58.416-3.69 13.5435-2.31 26.9862 1.5009 40.7889 10.772 49.092 55.0784 73.818 91.5303 60.3755-1.912-1.636-3.6836-3.0511-5.3417-4.5886-6.6618-6.1772-13.437-12.2433-19.8633-18.658-3.0623-3.057-2.718-8.3333.2949-11.119 7.0045-6.4763 14.0097-12.9614 21.2367-19.185 8.227-7.085 9.6053-6.8517 18.213.9035 2.9495 2.6575 6.141 5.0462 9.2214 7.5583 4.1342 3.3716 8.2678 6.744 12.8367 10.471 2.012-4.2768 4.5664-8.6027 6.1183-13.2623 2.3736-7.1269 4.0554-14.484 6.561-22.3675.2288-4.7544.7085-9.5138.6125-14.2616-.088-4.3545-.797-8.6964-1.9235-13.4687-1.4045-6.284-2.0556-12.861-4.3635-18.7934-5.543-14.248-13.456-27.0674-26.9111-35.306-5.9622-3.6506-12.4487-6.445-19.2492-10.0595-.9045-.1294-1.8089-.2588-2.6264-.4207 0 0 .032.0871-.4325-.5065-2.6806-.6811-5.336-1.8091-8.0464-1.9627-9.6146-.5447-19.3604-1.977-28.4979 2.4641 0 0 .082.0417-.6216-.0207-.8043.3718-1.6085.7436-2.3837 1.0292 0 0 .086.03-.6132-.0036-.805.3774-1.61.7549-2.4383.9911 0 0 .1406-.0264-.1382.2669"/>
    <path fill="#fe9437" d="M786.367 510.0643c8.6925-10.6806 17.3264-21.4098 26.0944-32.028 8.5098-10.3055 17.1934-20.4672 25.7276-30.7528 3.7279-4.493 7.2242-9.178 10.9322-13.6883 1.119-1.361 2.5959-2.4275 4.3583-3.5766.4495.0523.549.2427.434.4632-.3803.6536-.6457 1.0867-.9992 1.564-.0882.0442-.0977.2762-.0977.2762s.181-.3244.6426-.3184c5.0642-.2567 9.6692-.7732 14.269-.7318 11.0582.0994 22.1135.5285 33.1716.628 1.3493.0122 2.7093-1.1787 4.4468-1.8526 1.1503-.016 1.9181.0084 2.7923.3669 3.6608.46 7.2152.586 11.149.7.6317-.0287.8841-.0451 1.1365-.0615 3.221 4.981-.6776 8.0573-3.2569 11.2352-10.8892 13.4165-22.0413 26.6202-32.8917 40.0676-10.7283 13.2961-21.2093 26.7916-32.0053 40.461 25.1529 36.9301 50.4478 74.0687 75.84 111.8252.3857.8653.6741 1.1127.9625 1.36 0 0-.0648-.0126-.1005.3353-.2394 1.8063-.443 3.2646-1.0908 4.7619-2.9094.3193-5.3738.8325-7.8405.8432-21.143.0916-42.2864.0923-63.7126.0972-.6576-.0137-1.0324-.0044-1.4072.0049 0 0 .061-.0306-.0457-.2422-.4064-.407-.706-.6024-1.0056-.7978 0 0 .1188-.0492-.0043-.1038-.2575-.2707-.4397-.4333-.6696-.5425l-51.0749-72.6705c-5.1593 6.104-10.1632 12.0241-15.8149 18.1167-.8905.1765-1.1333.1806-1.7352.3407-.7622 2.0124-1.503 3.8668-1.5153 5.726-.0971 14.6254-.0371 29.2518-.064 43.8777-.0117 6.357-.8712 7.2138-7.198 7.2275-17.6175.0384-35.235.0449-52.8255.048.0272-.016.0207.0466-.1109-.168-.3925-.4219-.6534-.6293-.8857-.8309.0286.0058-.0253.0284-.0115-.4433.0039-94.2034-.006-187.935-.051-281.659-.035.0075-.0747-.0524.403-.0161 18.2522.0564 36.0267.1333 53.7999.0047 1.6786-.0122 3.3479-1.3153 5.0215-2.019.9585.7184 1.917 1.4368 2.8403 2.8314-.0497.9047-.0641 1.1332-.3178 1.6889-.3812 1.138-.6475 1.9489-.6478 2.7598-.0193 47.1956-.0317 94.3913.0594 141.5867.0027 1.3853 1.118 2.7685 1.9105 4.2694.5934-.2436.991-.6039 1.3886-.9642"/>
    <path fill="#ff9537" d="M409.8288 566.8897c2.9703 6.258 5.2714 13.1392 11.6551 16.8373 4.3822 2.5387 9.3287 4.084 13.9344 6.2607 6.2714 2.9638 13.1708 2.0683 19.015.5862 7.24-1.8363 13.8217-6.5065 20.4553-10.3536 2.0499-1.1889 3.34-3.6877 5.4075-5.9871.8463-1.0042 1.2632-1.6078 1.6914-2.224.0114-.0127.0324-.0394.2453-.2297.3994-.7226.5858-1.255.7697-1.7835-.0025.004-.0077.0113.2095-.1842.4095-.7376.6016-1.2796.7913-1.8174-.0025.0041-.0093.0115.238-.254 4.1529-8.8633 3.8596-17.7143 1.8095-27.0201-.0085-.8187.014-1.2869.3635-1.8524.6212-3.9815.955-7.8639 1.1386-11.7533.016-.3368-.9601-.7204-1.5169-1.464-.016-1.1482.0096-1.9146.3968-2.8156 1.8875-4.7866 3.1783-9.4261-.402-14.1495-.0105-.7994.0124-1.2567.3989-1.85.6779-.5073 1.2657-.8772 1.2675-1.25.0988-20.1496.1664-40.2996.1265-60.4492-.0014-.7001-1.127-1.398-1.763-2.4482-.0146-.8211.0053-1.2909.2477-2.0299.081-2.0354-.0605-3.8015-.2224-5.965-.0648-1.182-.1093-1.9663-.1537-2.7508 0 0 .0641.0337.3047-.0966.4286-.4921.6168-.8539.805-1.2156.8398-.5498 1.6798-1.0995 2.9406-1.2157 1.7699.818 3.1174 1.5308 4.4682 1.5371 16.8764.0789 33.7534.0582 50.6301.0484.801-.0005 1.602-.1391 2.403-.2134-.0824-.2536-.1297-.5277-.2613-.7523-.0687-.1174-.2858-.1478-.2018-.384.5902-.3075.9464-.4483 1.3026-.5891.7943.3448 1.5887.6897 2.5537 1.6454.4291 1.5224.6876 2.4339.7297 3.6915-.3497 7.9934-.5944 15.6405-.5987 23.2878-.0332 58.812-.0166 117.624-.0245 176.436-.001 7.8429-1.041 8.8535-8.982 8.8628-7.997.0094-15.9947-.0584-23.9911.0155-9.9807.0923-19.9604.295-29.9405.45-.682-3.264-1.5813-6.5017-1.9785-9.7999-.3295-2.7362-.0675-5.5436-.0675-9.8225-21.6368 21.6386-47.7545 27.033-75.5524 24.9522-29.2021-2.1858-49.2062-18.7684-62.0894-44.6697.3397-1.8668.594-3.3497.312-4.7224-1.8299-8.9054-5.3129-17.7672-5.4258-26.6792-.569-44.916-.278-89.843-.2639-134.7661.002-5.982.9596-6.9136 7.017-6.9243 16.3054-.0289 32.6119-.103 48.9153.0788 2.8558.0319 5.6988 1.2188 8.6782 2.2028.17.8007.2093 1.2709.0243 2.0837-.3456.8242-.5727 1.3057-.573 1.7874-.031 41.6188-.0683 83.2377.0323 124.8562.0038 1.584 1.3514 3.1647 2.2353 4.7862.1625.0393.4949.0763.4949.0763m-.1677 2.9994-.32.0974s.319.1035.32-.0974"/>
    <path fill="#fa8d32" d="M585.9519 394.8761c2.2744-8.2274 7.965-14.0266 14.6408-18.527 4.5112-3.041 10.0858-4.5047 15.8323-6.9933 5.6332-.689 10.6188-1.0587 15.6044-1.4284 0 0-.037.078.248.061.7282-.4455 1.171-.8739 1.614-1.3023 0 0-.0115.2065.188.0794.4297-.698.6597-1.2689.8897-1.8398 0 0 .0169.064.3165.0416.761-.6957 1.2225-1.3692 1.6838-2.0426 0 0 .0218.062.339.0452 1.4592-1.1284 2.6013-2.24 3.7434-3.3516 7.046-5.2613 13.9329-10.6148 23.6547-9.6975 6.4605.6097 10.1488 4.6614 7.8766 10.6564-1.6855 4.4471-4.6698 8.411-7.1611 12.5384-.7952 1.3176-1.8644 2.4698-3.0937 4.0688 7.1224 2.7968 13.8537 4.7604 19.9118 7.9876 7.919 4.2186 12.7338 11.4466 15.3741 19.9678 3.7397 12.0696-1.8975 27.3583-11.3458 32.0728-2.5719 1.2833-5.3729 2.1073-8.5883 3.3524-1.6362-.6916-2.6257-2.0948-3.8897-2.4153-9.3306-2.3654-18.639-4.9461-28.102-6.6312-14.189-2.5267-28.4966-4.3895-42.7577-6.5074-4.1054-.6098-5.4283 1.5008-4.891 5.2475 1.484 10.3502 2.665 20.7736 7.8152 30.1946.3064.5604-.4336 1.693-.6867 2.5593-6.5777-10.345-9.1855-21.7852-9.0987-33.8923.0187-2.6125-.662-3.9616-3.104-5.2504-2.6284-1.3871-4.683-3.8615-6.9732-6.6548-.0037-7.9751-.022-15.157-.0404-22.3389"/>
    <path fill="#ff9437" d="M605.2007 463.3571c.2206-1.211.9606-2.3435.6542-2.9039-5.1502-9.421-6.3312-19.8444-7.8153-30.1946-.5372-3.7467.7857-5.8573 4.891-5.2475 14.2612 2.118 28.5689 3.9807 42.7578 6.5074 9.463 1.685 18.7714 4.2658 28.102 6.6312 1.264.3205 2.2535 1.7237 3.6986 2.7487.0742.5995-.18 1.076-.7977 1.887-.197.9664-.0304 1.5981.136 2.2299-5.3456 16.1276-14.3482 29.3682-31.523 33.9718-14.7936 3.9652-31.7832-.6104-40.1036-15.63m2.7213 1.4588-.2302-.011s.2938.2056.3868.3762l.2375.0057s-.3042-.2034-.3941-.371"/>
    <path fill="#fe9437" d="M667.874 637.9474c.0889 6.4745-.5876 7.0099-8.0624 7.1349-16.57.2769-33.1383.6711-49.7088.9166-7.6342.1131-11.1724-3.4871-11.1685-10.9354.0227-42.9812.0088-85.9625.0996-128.9436.0069-3.2384.7328-6.4753 1.7323-9.8512 1.144.0056 1.6802.1494 2.2226.7958.3412 8.4646.9137 16.4259.9388 24.3888.0215 6.8447-.9302 13.697-.8198 20.5358.1338 8.2846 1.2853 16.5585 1.2814 24.8367-.0018 3.7027-1.0483 7.1162 4.078 8.0568-1.9835 2.1172-6.66-.4375-5.799 4.8787.9136 5.6407 1.2709 11.4321 1.2345 17.1536-.0788 12.3684-.57 24.734-.8812 37.101-.1384 5.4959 2.342 7.5775 7.8203 6.8055 2.9478-.4153 5.9352-.547 8.903-.823 13.756-1.2796 27.3705 3.2006 41.1508 1.0065 1.9804-.3152 4.5658.5906 4.569-2.9727.0069-7.8217.379-15.6473.2275-23.464-.2722-14.0492-.8216-28.093-1.2443-42.1392-.0149-.4925.1085-.9875.1312-1.4829.2782-6.0453.6892-12.0885.7934-18.1369.2106-12.2245.2684-24.4518.359-36.6782.0402-5.4143.0068-10.8292.0068-15.061-2.2217-1.641-3.566-2.7444-5.0235-3.6698-.9007-.5719-1.9713-1.235-2.9695-1.2414-18.0633-.115-36.1273-.136-53.8603-.4877 2.3039-.509 4.2769-.8784 6.25-.879 18.2978-.0061 36.5956.0514 54.8934.0905.9953 1.469 1.9906 2.9382 2.698 5.1118-.1494 3.797-.011 6.8893.1273 9.9817.046 3.3817.0918 6.7634-.1284 10.8705-.1346 2.1937-.0032 3.662.1283 5.1303.0402.1762.0802.3523-.1367 1.0617-.1258 2.0014.0056 3.4698.1368 4.938.047 3.7135.094 7.427-.1463 11.9458-.4261 1.7867-.6855 2.768-.6862 3.7493-.0227 28.656-.0322 57.3122.0166 85.9682.0025 1.4363.5452 2.8717.8364 4.3075"/>
    <path fill="#fe8821" d="M407.4844 432.9694c-2.8488-.6535-5.6918-1.8404-8.5476-1.8723-16.3034-.1818-32.61-.1077-48.9153-.0788-6.0574.0107-7.015.9423-7.017 6.9243-.014 44.923-.305 89.85.264 134.766.1128 8.912 3.5958 17.774 5.4257 26.6793.282 1.3727.0277 2.8556-.2955 4.3537-2.3458-6.5294-4.3745-13.1252-6.3537-20.5891-.3043-13.981-.634-27.0946-1.0431-40.2057-.0504-1.6143-.5255-3.2154-.8037-4.8226-.0576-14.1146-.1152-28.2293.127-43.1306.4525-2.428.7358-4.0692.7377-5.7107.0216-18.8574.0004-37.7148-.0094-56.5723 1.425-1.1814 2.85-2.3629 5.04-3.5816 20.6298.2852 40.4944.6078 60.359.9302.4317.3601.8635.7202 1.207 1.6165-.1172.7888-.1461 1.0412-.175 1.2937"/>
    <path fill="#ffbd80" d="M782.5149 643.8856c-5.1204.608-10.2267 1.506-15.3644 1.7547-7.3877.3576-14.8002.3901-22.1983.2847-6.5553-.0933-13.1033-.6245-19.6584-.8496-5.2947-.1817-6.3536-3.3346-6.35-7.928.0647-83.2883.0474-166.5767.058-249.865.0011-8.992.0664-17.984.7039-26.9958.749.1149.8959.2496.8586.7673-.3007 15.5315-.5119 30.68-.518 45.8284-.0312 76.1273-.0253 152.2545.0747 228.3817.0029 2.264 1.1903 4.5263 1.8255 6.7894 0 0 .0539-.0226.097.23.3439.4306.6448.6088.9456.7871 0 0 .0065-.0626.2997.23 19.9375.39 39.5817.4876 59.226.5851"/>
    <path fill="#fe8821" d="M488.0799 643.582c9.9702-.2868 19.95-.4895 29.9306-.5818 7.9964-.074 15.994-.0061 23.9911-.0155 7.941-.0093 8.981-1.02 8.982-8.8628.0079-58.812-.0087-117.624.0245-176.436.0043-7.6473.249-15.2944.6604-22.8266.2999 2.2803.3356 4.4455.3414 6.6108.066 24.4825.1275 48.965.1902 73.4475-.067 16.8133-.2102 33.6268-.1535 50.4397.0166 4.9225.6018 9.8431.6026 15.5506-.41 20.5848-.4961 40.3838-.5823 60.1827-.7407.98-1.4813 1.9602-3.0463 2.9489-20.704-.0304-40.5839-.0695-60.4637-.1085-.204.03-.3596-.0423-.477-.349"/>
    <path fill="#ffbd80" d="M783.8954 362.0854c.0145-.2285.0289-.457.0466-1.0307.6864 1.691 1.96 3.7257 1.9657 5.7639.131 47.4406.1246 94.8815.3014 142.784-.2398.822-.6374 1.1823-1.215.9792-.166-10.6822-.0811-20.8015-.1513-30.9197-.1715-24.7347-.4214-49.4688-.6266-74.2033-.12-14.4577-.2147-28.9156-.3208-43.3734"/>
    <path fill="#fe8821" d="M95.3401 626.9998c.8137-.2323 2.1968-.7725 3.0343-.3146 16.2088 8.862 33.206 15.346 51.6655 17.5605 21.0014 2.5194 41.713 1.633 61.93-5.216 1.3927-.4717 2.8824-.6574 4.5845-.7057-.0003.7646-.258 1.2587-.5156 1.7528 0 0-.0263-.0784-.3344-.2154-1.1066.317-1.9052.7711-2.7037 1.225 0 0 .008-.0667-.3387-.141-1.9526.6048-3.5584 1.2837-5.1643 1.9627 0 0 .0092.0764-.4127-.082-1.6514.314-2.8809.7861-4.1103 1.2583 0 0 .0284-.081-.3242-.1136-1.7942.3462-3.2358.7251-4.6773 1.104 0 0 .0311-.0697-.3406-.1313-2.1355.3457-3.8994.753-5.6632 1.1603 0 0-.0154-.1185-.1042.0163-.3354.2702-.5288.4598-.6688.7038-1.7585.06-3.517.1201-6.18.1645-13.7617-.3689-26.6187-.722-39.4758-1.075 0 0-.0522.0466-.38-.2478-1.6289-.4062-2.9299-.5181-4.2309-.63 0 0 .0647-.0274-.1352-.309-2.7995-.767-5.399-1.2527-7.9986-1.7382-13.4862-2.6827-25.5531-8.6947-37.4558-15.9886M782.7805 643.9478c-19.91-.1597-39.5542-.2572-59.5189-.6314 17.2972-.2956 34.9148-.3021 52.5323-.3405 6.3268-.0137 7.1863-.8705 7.198-7.2275.0269-14.6259-.0331-29.2523.064-43.8776.0123-1.8593.753-3.7137 1.4905-5.2664.1665 5.273-.1397 10.242-.1422 15.2112-.0064 12.7774.1217 25.5548.196 38.3321-.518 1.2874-1.036 2.5747-1.8197 3.8M33.0063 474.0026c-.057 4.866-.2107 9.7332-.1516 14.5977.1425 11.7288-.3142 23.521.7613 35.1683 1.3773 14.9146 5.4055 29.3237 11.6698 43.034.345.7553-.313 1.9691-.816 3.0668-2.3592-4.905-4.4065-9.9072-6.4173-15.649-.3516-1.5726-.7396-2.4058-1.1277-3.2388 0 0 .0689.0268.1112-.292-.344-1.1125-.7301-1.906-1.1163-2.6995 0 0 .0658.014.1476-.3232-.326-1.4546-.7338-2.572-1.1416-3.6893 0 0 .0716.0278.118-.369-.8502-5.7888-1.9082-11.16-2.6136-16.5772-2.3041-17.695-2.6008-35.3852.5762-53.0288M192.1423 361.9722c-10.443-.3274-20.8838-.7847-31.3294-.9524-16.898-.2712-32.7975 4.102-48.235 10.6251-2.13.9-4.6275.9302-7.2169 1.1312 4.4936-2.0839 9.188-4.1177 14.02-5.7423 6.2186-2.0908 12.5475-3.8536 19.6282-5.8536 11.7363-.7682 22.6725-1.9161 33.6106-1.9337 6.506-.0104 13.015 1.7573 19.5225 2.7257M409.1714 566.7741c-.7214-1.5822-2.069-3.163-2.0728-4.747-.1006-41.6184-.0634-83.2373-.0324-124.856.0004-.4818.2275-.9633.6101-1.3234.2858 39.8059.2973 79.4903.371 119.1747.004 2.0972.5342 4.1936.8195 6.2903 0 0 .1321.1163-.0094.6227.0102 1.9505.1621 3.3946.314 4.8387"/>
    <path fill="#ffbd80" d="M486.0712 522.9695c-.0256.7665-.0511 1.5329-.056 3.1407.0377 4.846.0548 8.8506.072 12.855-.0224.4682-.0449.9364-.0613 2.216-.678 8.1024-1.3622 15.3931-2.0463 22.6839.3802-43.8555.7605-87.711 1.5466-131.7446.4505.6064.495 1.3908.5284 2.9873.003 2.4813.017 4.1505.0312 5.8197-.0198.4697-.0397.9395-.0515 2.225.016 21.8169.0239 42.818.0319 63.819-.023.4573-.0459.9146-.0552 2.1757.0291 5.1433.0446 9.4828.0602 13.8223M408.9253 560.816c-.3438-1.6-.874-3.6964-.878-5.7936-.0737-39.6844-.0852-79.3688-.1466-119.5173-.0764-.9343-.1157-1.4045-.2857-2.2052-.1016-.583-.0727-.8354.1304-1.427.5373 1.1704 1.2158 2.6797 1.2176 4.1898.049 41.4188.0292 82.8378-.0377 124.7533M33.002 473.6573c-3.1727 17.9889-2.876 35.6791-.5719 53.3741.7054 5.4171 1.7634 10.7884 2.5995 16.613-1.7139-7.5392-3.9993-15.4406-4.8935-23.4965-2.0758-18.7008-.5753-37.3303 2.8955-55.7856.707-3.7593 2.1042-7.3888 3.5756-11.2259.3924-.1478.4855-.0808.5196.3308-.7583 4.113-1.5508 7.8143-2.3432 11.5157-.2391.5019-.4783 1.0037-.7655 2.1436-.3181 2.0302-.5881 3.4224-.8581 4.8147-.054.4569-.1082.9138-.158 1.716M602.9824 496.562c-.536-.144-1.0722-.2877-1.8788-.5041 2.3332-1.07 4.9248-2.8924 7.5427-2.9311 17.1173-.2536 34.2404-.151 51.361-.0641 1.5536.0078 3.1036.7265 4.8381 1.4675-18.115.3133-36.4127.2558-54.7105.2618-1.9731.0007-3.9461.3701-6.3439.9744-.5583.5302-.6863.66-.8086.7956"/>
    <path fill="#fe8821" d="M781.1007 357.8927c-1.6406.7033-3.31 2.0064-4.9885 2.0186-17.7731.1286-35.5477.0517-53.7174-.2978-.2628-.714-.1302-1.0985.0025-1.4831 0 0 .091-.1348.6597-.0562 19.7174.014 38.866-.0506 58.0147-.1152 0 0-.004-.0658.029-.0663"/>
    <path fill="#ffbd80" d="M855.089 642.4202c.2072-.3854.582-.3947 1.6086-.117 2.2925.4366 3.9332.7158 5.5738.716 21.896.0023 43.792-.0345 65.711-.0393.0228.022.0692.0656.0692.0656-6.0727.6387-12.146 1.8189-18.218 1.8122-16.6805-.0183-33.361-.5056-50.0394-.9025-1.5208-.0362-3.0255-.7564-4.7052-1.535"/>
    <path fill="#ff9537" d="M667.941 637.4885c-.3581-.9769-.9008-2.4123-.9033-3.8486-.0488-28.656-.0393-57.3121-.0166-85.9682.0007-.9814.26-1.9626.616-3.2906.2683 30.6517.3196 61.65.304 93.1074"/>
    <path fill="#ffbd80" d="M192.3784 361.9915c-6.7437-.9877-13.2526-2.7554-19.7586-2.745-10.938.0176-21.8743 1.1655-33.2602 1.771 5.5288-1.0517 11.4756-2.5714 17.4901-2.9197 17.204-.9962 34.2391.425 50.9594 5.6015.0398.5473-.2244.9351-.6069.8178-4.9621-.8858-9.5417-1.6541-14.1213-2.4225 0 0-.4664-.0837-.7025-.103M548.0364 428.7034c-.0692.4986-.4254.6394-1.4633.9318-19.0698-.096-37.458-.3435-55.8462-.5911.5117-.3387 1.0243-.9748 1.535-.9733 18.496.0548 36.9918.169 55.7745.6326M552.5365 514.6725c-.3991-24.2374-.4606-48.7199-.5266-73.2024-.0058-2.1653-.0415-4.3305-.125-6.957-.3202-1.3726-.5787-2.2841-.8865-3.5531.6339 1.2306 1.9074 2.817 1.9123 4.4073.0818 26.3531.0042 52.7067-.3742 79.3052"/>
    <path fill="#fe8821" d="M490.5887 429.019c18.5264.2727 36.9146.5202 55.7504.7828.5977.0847.8148.1151.8835.2325.1316.2246.1789.4987.2612.7523-.801.0743-1.6018.2129-2.4029.2134-16.8767.0098-33.7537.0305-50.63-.0484-1.3509-.0063-2.6984-.7191-4.1494-1.4677-.1019-.364.149-.4899.2872-.4648"/>
    <path fill="#ffbd80" d="M488.8383 644.282c19.5984-.312 39.4783-.273 59.8375-.2499-1.0403.299-2.5584.877-4.0802.8872-11.666.0781-23.333.0847-34.9992.0332-6.826-.0303-13.6512-.2081-20.7581-.6705M908.0325 430.08c-.7678-.0244-1.5356-.0488-3.1508-.056-17.516.0905-34.1847.1639-50.8533.2373 0 0-.0994-.1904-.2068-.2128 1.408-.3654 2.9224-1.001 4.439-1.0068 18.893-.0723 37.7863-.0874 56.679.0015 1.661.0078 3.318.8499 5.231 1.6569.0014.3689-.251.3853-1.2774.3203-4.1361-.3677-7.4984-.654-10.8607-.9403M406.1772 429.73c-19.5893.0068-39.454-.3158-59.7844-.7248.8869-.393 2.2387-.9615 3.5925-.966 16.7879-.0568 33.5763-.0744 50.3637.0338 1.8538.012 3.7022.8648 5.8282 1.657M340.6761 432.969c.3872 18.599.4084 37.4565.3868 56.3139-.0019 1.6415-.2852 3.2827-.6527 5.2642-.1804-20.2131-.1459-40.7664.266-61.578M552.4496 640.8733c-.2965-19.5816-.2103-39.3806.1313-59.502.2541 19.5464.2528 39.4156-.1313 59.502M785.0511 640.022c-.5252-12.6516-.6533-25.429-.6469-38.2064.0025-4.9692.3087-9.9382.5013-15.367.2676-.464.5104-.4681 1.1184-.4901.2346 16.0182.1193 32.0544-.0462 48.09-.0202 1.9507-.3106 3.8985-.9266 5.9735M780.8737 357.5638c-18.9507.4598-38.0993.5244-57.7476.5533.5106-.3964 1.5207-1.071 2.531-1.0714 18.3395-.0074 36.679.0664 55.2166.518M303.4493 538.8539c.6474-7.3137 1.9753-14.7848 2.5475-22.3133.674-8.8692.6936-17.7883 1.0163-27.1601.3412.2084.9227.8821.947 1.5754.5657 16.0727-.3882 32.019-4.5108 47.898M340.133 538.579c.3434 1.1524.8185 2.7535.8689 4.3678.4092 13.1111.7388 26.2247 1.0584 39.8072-.7124-3.1252-1.8983-6.7093-1.974-10.3168-.2339-11.1297-.044-22.2684.0466-33.8583M145.7957 646.29c12.602-.0236 25.459.3295 38.7831.7469-.2122.3645-.9003.9447-1.5694.9235-12.3209-.3883-24.6395-.8486-37.2137-1.6704"/>
    <path fill="#fe8821" d="M483.6783 564.0011c.9854-7.4268 1.6695-14.7175 2.3785-22.4692 2.0441 8.4942 2.3374 17.3452-1.8443 25.9309-.5345-.4927-.793-.9732-1.0514-1.4538.072-.624.144-1.2479.5172-2.0079"/>
    <path fill="#ffbd80" d="M585.6047 395.0565c.3655 7.0015.3839 14.1834.4266 21.8205-4.3508-6.7615-3.4152-14.17-.4266-21.8205M631.6039 367.96c-4.56.3371-9.5457.7068-14.9863 1.0431 4.55-.3591 9.5554-.6848 14.9863-1.043"/>
    <path fill="#fe8821" d="M41.0845 441.3833c3.2158 3.491-.0901 6.204-1.8525 8.985-.2803-1.3132-.2786-2.3801-.2769-3.447 0 0 .0236.0638.3067-.0574.4362-.7619.5892-1.4026.7423-2.0433.3354-1.0354.6708-2.0708 1.0804-3.4373"/>
    <path fill="#ffbd80" d="M306.0386 480.5908c-1.0155-4.6428-2.067-9.7255-3.0565-15.235 1.0482 4.6471 2.0344 9.7211 3.0565 15.235M132.9925 643.338c2.403.136 5.0025.6215 7.8142 1.4216-2.3978-.1476-5.0077-.6097-7.8142-1.4216"/>
    <path fill="#ff9537" d="M667.924 509.5292c-.2087-2.6455-.3471-5.7378-.2684-9.1527.2576 2.687.298 5.6964.2683 9.1527M482.9983 566.3372c.4212.1524.6797.6329.967 1.391.0287.2777.0355.2703-.1756.464-.4057.7342-.6003 1.2747-.7949 1.815 0 0 .0052-.0072-.1987.1855-.3947.7209-.5854 1.249-.7762 1.777 0 0-.021.0268-.3205.0343-.4916-.0016-.6837-.0105-.8759-.0194.6707-1.7731 1.3414-3.5461 2.1748-5.6474"/>
    <path fill="#ffbd80" d="M303.05 464.6124c-.6742-1.705-1.3777-3.8074-2.047-6.3028.6955 1.7064 1.3567 3.806 2.047 6.3028M307.0469 488.5988c-.3429-1.9833-.7243-4.4018-1.0571-7.2533.3719 1.984.6952 4.401 1.057 7.2533M928.3257 641.0598c.2037-1.4583.4074-2.9166.6614-4.7524-.0439 1.896-.1381 4.1694-.5839 6.5905-.3516.1476-.398.104-.4192-.2427.0997-.763.2207-1.1792.3417-1.5954M38.6224 447.088c.331.9002.3293 1.967.2903 3.4321-.0373.3981-.0016.4445-.1994.6176-.6721.7547-1.1464 1.3363-1.6206 1.918 0 0-.0931-.0671-.1394-.101.4146-1.9227.8755-3.8112 1.669-5.8666M640.7407 359.7835c-.831.9464-1.973 2.058-3.4641 3.178.8182-.9986 1.9856-2.0057 3.464-3.178M207.9046 642.949c1.199-.7199 2.8048-1.3988 4.7878-1.9893-1.2089.7358-2.7949 1.3829-4.7878 1.9892M192.3834 646.059c1.3498-.3625 3.1137-.7698 5.284-1.0997-1.3524.4032-3.1112.729-5.284 1.0997M409.3339 566.8134c-.3144-1.4834-.4663-2.9275-.5281-4.8067.45 1.0682.8101 2.5715 1.0965 4.479-.0735.404-.4059.367-.5684.3277M216.3798 640.0372c-.0834-.4545.1743-.9486.58-1.694.148-.251.1046-.3076.3977-.2755.7114-.0471 1.1297-.1263 1.5481-.2055.1875.0341.375.0682.8363.1836-.8244.7048-1.9227 1.3283-3.362 1.9914"/>
    <path fill="#ff9537" d="M667.9236 525.569c-.2016-1.0605-.333-2.5287-.2676-4.266.2438 1.1067.2907 2.4823.2676 4.266M667.9238 531.5688c-.2014-1.0604-.3328-2.5288-.267-4.266.2437 1.1068.2905 2.4825.267 4.266"/>
    <path fill="#ffbd80" d="M198.3704 645.0377c1.0443-.3418 2.4859-.7207 4.3204-1.0525-1.0457.37-2.4845.6927-4.3204 1.0525M141.1233 645.3958c1.1074-.2483 2.4084-.1364 4.0212.2388-1.068.216-2.4478.1686-4.0212-.2388"/>
    <path fill="#fe8821" d="M480.5494 572.1115c.4663-.118.6584-.109 1.1386-.0949-.1287.6088-.5456 1.2124-1.2454 1.8932-.2444-.5057-.2058-1.0886.1068-1.7984"/>
    <path fill="#ffbd80" d="M34.9592 544.3597c.3743.7352.7821 1.8526 1.0947 3.338-.4173-.7398-.7392-1.8478-1.0947-3.338"/>
    <path fill="#fa8d32" d="M676.8972 444.679c-.2363-.2955-.4028-.9272-.321-1.627.296.3848.3434.8378.321 1.627"/>
    <path fill="#ffbd80" d="M203.387 644.0495c.8171-.4373 2.0466-.9095 3.6758-1.2547-.8214.4912-2.0425.8555-3.6759 1.2547M213.3637 641.0581c.4355-.4256 1.234-.8796 2.362-1.1606-.4468.4928-1.2229.8125-2.362 1.1606M213.9497 365.628c-.353.37-.8365.4131-1.8918.3421-.8916-.2922-1.0623-.564-1.0625-.9581.0214-.0288.0664-.0848.0664-.0848.9192.1247 1.8383.2494 2.888.7009M722.0598 358.0883c.2048.4267.0722.8112-.1429 1.489-.0823.293-.0426.353-.2443.4013-.4858.2144-.7266.429-.9242.6923-.1468-.1347-.2937-.2694-.6595-.6078.3985-.808 1.016-1.4124 1.971-1.9748M36.9593 551.3499c.3536.4647.7416 1.2979 1.1 2.4996-.375-.4647-.7202-1.298-1.1-2.4996M35.953 548.3464c.3529.4372.739 1.2307 1.0692 2.3774-.3827-.4383-.7093-1.2297-1.0692-2.3774M636.6744 363.0045c-.1663.5936-.6277 1.267-1.4206 1.9539.1543-.6158.64-1.2449 1.4206-1.9539M207.9862 364.0563c1.0266-.0446 1.9159.101 2.9404.5588.1352.312.0902.368-.2716.45-1.2647-.0888-2.1675-.2598-3.0703-.4307 0 0 .2642-.3878.4015-.578M216.9393 366.636c-.7494.1668-1.6462.0077-2.7478-.4324.7302-.1518 1.6653-.0226 2.7478.4324M301.0552 457.6572c-.3297-.4489-.6933-1.2557-1.0335-2.4181.3488.4497.6743 1.255 1.0335 2.4181M633.569 366.5156c-.1206.5989-.5634 1.0273-1.3306 1.4543.1199-.5424.564-1.0836 1.3306-1.4543M39.7 444.9578c.151.5035-.002 1.1442-.472 1.903-.1554-.51.0062-1.1379.472-1.903M218.8645 367.7733c-.5432.1036-1.0603-.1324-1.7267-.6151.4848-.0727 1.1189.1014 1.7267.615M634.6404 365.046c.0987.4506-.1313 1.0215-.6636 1.707-.0898-.4523.1226-1.0194.6636-1.707M191.4274 646.8015c-.091-.2216.1024-.4112.4968-.691.1302.1878-.0076.4588-.4968.691M853.9613 641.272c.2084-.0725.508.1229.9238.5627-.2001.0647-.5163-.1152-.9238-.5627M853.246 640.5566c.18-.0896.3623.073.6458.4024-.1447.1144-.393.0087-.6458-.4024M928.9953 635.7115c-.2107.0428-.499-.2046-.916-.7212.1937-.0358.516.1977.916.7212M300.0482 454.8412c-.115.0243-.2269-.1625-.2657-.4575.0374-.0969.2335.2576.2657.4575M486.7927 430.8052c.061.1867-.127.5485-.5919 1.0414-.0703-.2014.1362-.5339.592-1.0414M97.4827 484.2668c.0398 7.0905-.4892 14.3112-.4863 21.5317.0025 6.0423.6265 12.0843.9631 18.5597-3.125-12.9751-4.505-26.4178-.4768-40.0914M184.7912 422.7941c-2.2074.6655-4.647 1.0342-7.0866 1.403l-.1576-.8547 2.9565-.8253c-10.7104-3.0175-21.182-1.108-32.0958.5247 8.7444-4.4841 18.4902-3.052 28.1048-2.5072 2.7105.1536 5.3658 1.2816 8.2787 2.2595M239.1876 515.6257c-.2424-8.6887-.2198-17.6895-.276-27.1539.3565 3.8839 1.0655 8.2258 1.1535 12.5803.096 4.7478-.3837 9.5072-.8775 14.5736"/>
    <path fill="#fe8821" d="M207.2022 364.517c1.2853.2883 2.1881.4593 3.4313.577.3621.3122.5328.584 1.0604.8999-5.8874-1.0529-11.9825-2.2436-18.3453-3.6668 4.3119.5359 8.8915 1.3042 13.8536 2.19M37.1268 453.4672c.4401-.9932.9144-1.5748 1.61-2.3462-.9421 4.3813-2.1054 8.9525-3.611 13.6928.4503-3.5323 1.2427-7.2337 2.001-11.3466M33.4741 471.842c-.0441-1.293.2259-2.6853.5457-4.4304-.044 1.2084-.1378 2.7697-.5457 4.4303"/>
    <path fill="#ffbd80" d="M144.7457 424.0204c-.4516.3404-1.2527.664-2.4092 1.0516.4497-.3135 1.2547-.691 2.4092-1.0516M187.8938 423.6402c-.702.1633-1.68.1108-2.8236-.2727.7387-.2018 1.6431-.0724 2.8236.2727M147.7448 423.0092c-.4481.3558-1.2481.6803-2.4064 1.0445.446-.332 1.2503-.7039 2.4064-1.0445"/>
    <path fill="#fe8821" d="M218.738 637.6968c-.2508.2446-.6691.3238-1.4081.3935.1997-.1926.72-.3758 1.408-.3935"/>
    <path fill="#ffbd80" d="M141.959 425.115c.1083.1714-.0272.4358-.489.6718-.0839-.2129.1065-.3964.489-.6719"/>
    <path fill="#fe8821" d="M720.5643 361.0539c.3817-.6462.6225-.861 1.1433-1.0829.2467 93.6757.2566 187.4073.2526 281.6107-.649-1.7914-1.8363-4.0537-1.8392-6.3177-.1-76.1272-.106-152.2544-.0747-228.3817.0061-15.1485.2173-30.297.518-45.8284M783.6563 362.4126c.3452 14.1306.4399 28.5885.5599 43.0462.2052 24.7345.455 49.4686.6266 74.2033.0702 10.1182-.0146 20.2375-.0446 30.803-.6123-.9375-1.7277-2.3207-1.7304-3.706-.091-47.1954-.0787-94.391-.0594-141.5867.0003-.811.2666-1.6218.6478-2.7598M853.9135 430.4818c16.7835-.2939 33.4522-.3673 50.5856-.4173-.89.6566-2.25 1.8475-3.5993 1.8353-11.0581-.0995-22.1134-.5286-33.1715-.628-4.6-.0414-9.2049.475-14.2679.733-.4604-.0048-.458-.0032-.458-.0032.2654-.433.5308-.8662.9111-1.5198M927.8817 641.0988c.323.3772.202.7934.0794 1.5343-21.8976.3516-43.7937.3884-65.6897.386-1.6406 0-3.2813-.2793-5.291-.6929 20.7744-.2919 41.9178-.2926 63.0608-.3842 2.4667-.0107 4.931-.524 7.8405-.8432M908.139 430.414c3.2558-.0476 6.618.2387 10.375.6186-3.1599-.0325-6.7143-.1585-10.375-.6185M722.8575 642.856c-.1692.0362-.4701-.142-.8426-.5785.1892-.0509.4501.1565.8426.5785"/>
    <path fill="#fe8821" d="M852.9988 431.9988c-.0012-.0012-.1821.3232-.1821.3232s.0094-.232.0976-.2762c.0881-.0442.0857-.0458.0845-.047M486.4297 506.8355c-.3715-20.865-.3795-41.8661-.3611-63.3317.628.2345 1.7537.9324 1.7551 1.6325.04 20.1496-.0277 40.2996-.1265 60.4492-.0018.3728-.5896.7427-1.2675 1.25M486.4328 522.835c-.3772-4.205-.3927-8.5445-.3884-13.3456 3.5667 3.9195 2.2759 8.559.3884 13.3456M486.4143 538.868c-.3443-3.9072-.3614-7.9118-.3577-12.376.5362-.0978 1.5122.2858 1.4963.6226-.1836 3.8894-.5174 7.7718-1.1386 11.7533M486.3084 440.6582c-.2367-1.3999-.2509-3.069-.2336-5.153.173 1.3515.3146 3.1176.2336 5.153M409.6606 569.9896c-.0006.1004-.3195-.0032-.3195-.0032s.32-.0973.3195.0032M482.2328 571.7795c-.0221-.3379.1686-.866.5658-1.5908.02.3357-.1664.8682-.5658 1.5908M483.212 569.8118c-.0226-.345.172-.8854.5802-1.6237.0214.3441-.1707.8861-.5802 1.6237"/>
    <path fill="#fa8d32" d="m608.0119 464.9834.3042.2034s-.2375-.0057-.2767-.0967c-.039-.091-.0275-.1067-.0275-.1067M607.993 465.0048c-.0074.0057-.3012-.1999-.3012-.1999s.2302.011.2751.0947.0335.0995.026.1052"/>
    <path fill="#ff9537" d="M602.9888 497.0645c.116-.638.244-.768.4715-.9875 18.1576-.0541 36.2216-.0331 54.2849.0818.9982.0064 2.0688.6695 2.9695 1.2414 1.4575.9254 2.8018 2.0289 5.0235 3.6698 0 4.2318.0334 9.6467-.0068 15.061-.0906 12.2264-.1484 24.4537-.359 36.6782-.1042 6.0484-.5152 12.0916-.7934 18.137-.0227.4953-.146.9903-.1312 1.4828.4227 14.0463.972 28.09 1.2443 42.1391.1514 7.8168-.2206 15.6424-.2276 23.4641-.0031 3.5633-2.5885 2.6575-4.5689 2.9727-13.7803 2.194-27.3947-2.2862-41.1507-1.0065-2.968.276-5.9553.4077-8.9031.823-5.4783.772-7.9587-1.3096-7.8203-6.8054.3113-12.367.8024-24.7327.8812-37.101.0364-5.7216-.3209-11.513-1.2344-17.1537-.8611-5.3162 3.8154-2.7615 5.799-4.8787-5.1264-.9406-4.08-4.3541-4.0781-8.0568.0039-8.2782-1.1476-16.5521-1.2814-24.8367-.1104-6.8387.8413-13.691.8198-20.5358-.025-7.963-.5976-15.9242-.9388-24.3888"/></g>
</svg>